<?xml version="1.0" encoding="utf-8"?>
<!-- Generator: Adobe Illustrator 23.0.6, SVG Export Plug-In . SVG Version: 6.00 Build 0)  -->
<svg version="1.1" xmlns="http://www.w3.org/2000/svg" xmlns:xlink="http://www.w3.org/1999/xlink" x="0px" y="0px"
	 viewBox="0 0 499.5 382.5" style="enable-background:new 0 0 499.5 382.5;" xml:space="preserve">
<style type="text/css">
	.st0{fill:#E3FFFF;}
	.st1{display:none;}
	.st2{display:inline;}
	.st3{fill:#33CC99;}
	.st4{fill:none;stroke:#3EA88C;stroke-width:0.7868;stroke-linecap:round;stroke-miterlimit:10;}
	.st5{opacity:0.48;fill:#3EA88C;}
	.st6{fill:none;stroke:#FFFFFF;stroke-linecap:round;stroke-miterlimit:10;}
	.st7{fill:#96F7BB;}
	.st8{fill:none;stroke:#3EA88C;stroke-width:1.5843;stroke-linecap:round;stroke-miterlimit:10;}
	.st9{fill:none;stroke:#FFFFFF;stroke-width:2.1124;stroke-linecap:round;stroke-miterlimit:10;}
	.st10{fill:#CCFFCF;}
	.st11{fill:none;stroke:#3EA88C;stroke-width:2.5741;stroke-linecap:round;stroke-miterlimit:10;}
	.st12{fill:none;stroke:#FFFFFF;stroke-width:3.4322;stroke-linecap:round;stroke-miterlimit:10;}
	.st13{fill:#3EA88C;}
	.st14{fill:#F39698;}
	.st15{fill:#6666FF;}
	.st16{fill:none;stroke:#3EA88C;stroke-width:0.7668;stroke-linecap:round;stroke-miterlimit:10;}
	.st17{fill:#F8B0A7;}
	.st18{fill:#E92175;}
	.st19{fill:none;stroke:#6666FF;stroke-width:3.8512;stroke-miterlimit:10;}
	.st20{fill:none;stroke:#4A54CB;stroke-width:3.8512;stroke-miterlimit:10;}
	.st21{fill:#333333;}
	.st22{fill:#CC7A66;}
	.st23{fill:none;stroke:#F39698;stroke-width:1.3172;stroke-linecap:round;stroke-miterlimit:10;}
	.st24{fill:#4A54CB;}
	.st25{fill:#DDAE8E;}
	.st26{fill:none;stroke:#D78181;stroke-width:1.1263;stroke-linecap:round;stroke-miterlimit:10;}
	.st27{fill:none;stroke:#E92175;stroke-width:1.1263;stroke-linecap:round;stroke-miterlimit:10;}
	.st28{fill:none;stroke:#3EA88C;stroke-width:0.7831;stroke-linecap:round;stroke-miterlimit:10;}
	.st29{fill:none;stroke:#D78181;stroke-width:1.1361;stroke-linecap:round;stroke-miterlimit:10;}
	.st30{fill:none;stroke:#FFFFFF;stroke-width:1.191;stroke-linecap:round;stroke-miterlimit:10;}
	.st31{fill:none;stroke:#3EA88C;stroke-width:1.191;stroke-linecap:round;stroke-miterlimit:10;}
	.st32{fill:none;stroke:#FFFFFF;stroke-width:1.191;stroke-miterlimit:10;}
	.st33{fill:#5A5A5A;}
	.st34{fill:none;stroke:#E92175;stroke-width:0.7964;stroke-linecap:round;stroke-miterlimit:10;}
	.st35{fill:#E92175;stroke:#CF2169;stroke-width:0.8556;stroke-linecap:round;stroke-miterlimit:10;}
	.st36{fill:none;stroke:#CF2169;stroke-width:0.8556;stroke-linecap:round;stroke-miterlimit:10;}
	.st37{opacity:0.6;}
	.st38{fill:none;stroke:#FFFFFF;stroke-width:1.2164;stroke-miterlimit:10;}
	.st39{fill:none;stroke:#FFFFFF;stroke-width:1.2164;stroke-linecap:round;stroke-miterlimit:10;}
	.st40{fill:#CF2169;}
	.st41{fill:none;stroke:#FFFFFF;stroke-width:0.6883;stroke-linecap:round;stroke-miterlimit:10;}
	.st42{fill:none;stroke:#FFFFFF;stroke-width:1.1771;stroke-linecap:round;stroke-miterlimit:10;}
	.st43{fill:none;stroke:#5A5A5A;stroke-width:1.3172;stroke-linecap:round;stroke-miterlimit:10;}
	.st44{fill:none;stroke:#FFFFFF;stroke-width:0.6586;stroke-linecap:round;stroke-miterlimit:10;}
	.st45{fill:none;stroke:#66C3FF;stroke-width:0.9929;stroke-linecap:round;stroke-linejoin:round;}
	.st46{fill:none;stroke:#66C3FF;stroke-width:0.9929;stroke-linecap:round;stroke-linejoin:round;stroke-dasharray:4.7143,4.7143;}
	.st47{fill:none;stroke:#66C3FF;stroke-width:0.9929;stroke-linecap:round;stroke-linejoin:round;stroke-dasharray:4.9786,4.9786;}
	.st48{fill:none;stroke:#66C3FF;stroke-width:0.9929;stroke-linecap:round;stroke-linejoin:round;stroke-dasharray:4.8595,4.8595;}
	.st49{fill:#6666FF;stroke:#4A54CB;stroke-width:0.5704;stroke-linecap:round;stroke-miterlimit:10;}
	.st50{fill:#B66E4D;}
	.st51{fill:#6C3220;}
	.st52{fill:#9D5F44;}
	.st53{fill:none;stroke:#924D2F;stroke-width:2.0021;stroke-linecap:round;stroke-miterlimit:10;}
	.st54{fill:none;stroke:#FFFFFF;stroke-width:1.7775;stroke-linecap:round;stroke-miterlimit:10;}
	.st55{fill:none;stroke:#5A5A5A;stroke-width:2.0021;stroke-linecap:round;stroke-miterlimit:10;}
	.st56{fill:none;stroke:#FFFFFF;stroke-width:2.1622;stroke-miterlimit:10;}
	.st57{fill:none;stroke:#FFFFFF;stroke-width:2.1622;stroke-linecap:round;stroke-miterlimit:10;}
	.st58{opacity:0.26;fill:#F8B0A7;}
	.st59{fill:#33CC99;stroke:#3EA88C;stroke-width:1.0139;stroke-linecap:round;stroke-miterlimit:10;}
	.st60{fill:none;stroke:#4A54CB;stroke-width:0.7132;stroke-linecap:round;stroke-miterlimit:10;}
	.st61{fill:none;stroke:#FFFFFF;stroke-width:1.2743;stroke-linecap:round;stroke-miterlimit:10;}
	.st62{fill:none;stroke:#CF2169;stroke-width:0.7132;stroke-linecap:round;stroke-miterlimit:10;}
	.st63{fill:#E92175;stroke:#CF2169;stroke-width:1.0143;stroke-linecap:round;stroke-miterlimit:10;}
	.st64{fill:none;stroke:#FFFFFF;stroke-width:0.9329;stroke-linecap:round;stroke-miterlimit:10;}
	.st65{fill:none;stroke:#D78181;stroke-width:1.9046;stroke-linecap:round;stroke-miterlimit:10;}
	.st66{fill:none;stroke:#D78181;stroke-width:1.8882;stroke-linecap:round;stroke-miterlimit:10;}
	.st67{fill:none;stroke:#FFFFFF;stroke-width:1.9965;stroke-linecap:round;stroke-miterlimit:10;}
	.st68{fill:none;stroke:#3EA88C;stroke-width:1.9965;stroke-linecap:round;stroke-miterlimit:10;}
	.st69{fill:none;stroke:#FFFFFF;stroke-width:1.9965;stroke-miterlimit:10;}
	.st70{fill:none;stroke:#E92175;stroke-width:1.3352;stroke-linecap:round;stroke-miterlimit:10;}
	.st71{fill:none;stroke:#D78181;stroke-width:1.9339;stroke-linecap:round;stroke-miterlimit:10;}
	.st72{fill:none;stroke:#E92175;stroke-width:1.9339;stroke-linecap:round;stroke-miterlimit:10;}
	.st73{fill:none;stroke:#3EA88C;stroke-width:1.3446;stroke-linecap:round;stroke-miterlimit:10;}
	.st74{fill:none;stroke:#FFFFFF;stroke-width:2.0886;stroke-miterlimit:10;}
	.st75{fill:none;stroke:#FFFFFF;stroke-width:2.0886;stroke-linecap:round;stroke-miterlimit:10;}
	.st76{fill:none;stroke:#FFFFFF;stroke-width:1.1818;stroke-linecap:round;stroke-miterlimit:10;}
	.st77{fill:none;stroke:#FFFFFF;stroke-width:2.021;stroke-linecap:round;stroke-miterlimit:10;}
	.st78{fill:#6666FF;stroke:#4A54CB;stroke-width:0.9793;stroke-linecap:round;stroke-miterlimit:10;}
</style>
<g id="BG">
	<g>
		<path class="st0" d="M484.2,187.2c0.4-13.7,2.4-27.4,1.7-41.1c-0.5-10.6-2.7-21-5.4-31.2c-9.5-36-29.5-73.4-64.8-85.1
			c-22.6-7.5-47.2-3-70.8,0.6c-6.2,0.9-12.4,1.8-18.6,2.1c-39,2-77.1-17.6-115.8-13c-28,3.4-53.4,19.2-81.4,23
			c-16.3,2.2-33.2,0.3-49,4.9c-13.5,3.9-25.1,29.7-26.5,47.2c-0.6,7.8-1.9,15.4-4,23l-3.3,12c-2.1,7.6-4.9,15-8.3,22.1
			c-7.1,14.6-15.1,28.8-20.8,44c-6.9,18.6-10.4,38.4-10.1,58.3c0.4,26.7,8,53.7,23.7,75.4c15.7,21.6,40,37.5,66.6,40.5
			c19.2,2.2,38.5-2.1,57.5-5.1c37.3-5.9,75.3-7,112.9-3.4c11.5,1.1,23.2,2.7,34.4,0c7-1.7,13.5-5,20.2-7.6
			c24.4-9.4,51.2-9.8,77.1-13.6c25.9-3.7,53.1-12.1,69.3-32.6c12.8-16.2,16.9-37.8,17.2-58.4C486.6,228.5,483.6,207.8,484.2,187.2z"
			/>
	</g>
</g>
<g id="Background" class="st1">
</g>
<g id="Design">
	<path class="st18" d="M249.4,52.5c-19.5-0.7-68.3,5.9-61.2,91c8.8,105.9,20.9,79.6,20.9,79.6l40.3-2.2l40.3,2.2
		c0,0,12.1,26.3,20.9-79.6C317.7,58.4,268.9,51.8,249.4,52.5z"/>
	<path class="st15" d="M252.4,194l0-0.2c-0.5,0-1.1,0-1.6,0.1c-0.5,0-0.9,0-1.4-0.1v0c0,0-0.1,0-0.1,0c0,0-0.1,0-0.1,0v0
		c0,0-0.1,0-0.1,0c0,0-0.1,0-0.1,0v0c0,0-0.1,0-0.1,0c0,0-0.1,0-0.1,0v0c-0.5,0-0.9,0-1.4,0.1c-0.5,0-1.1,0-1.6-0.1l0,0.2
		c-49.4,2.3-58.7,20.7-58.7,20.7l13.5,15.1c0,0-4.6,35.6-3.6,61.9c1,25.6,2.1,54.8,2.6,68.3c22.8-1.3,45.7-0.8,68.5,1.4
		c10.2,1,20.6,2.3,30.6,0.7c0.4-12.2,1.6-43.3,2.6-70.4c1-26.2-3.6-61.9-3.6-61.9l13.5-15.1C311.1,214.7,301.8,196.4,252.4,194z"/>
	<path class="st14" d="M259.9,194.5v-25.9h-21.2v25.9c-10.5,0.9-18.9,2.5-25.7,4.5c0.8,22.6,16.7,23,36.3,23
		c19.5,0,35.5-0.4,36.3-23C278.8,197,270.4,195.4,259.9,194.5z"/>
	<g>
		<circle class="st17" cx="204.2" cy="130.2" r="10.1"/>
		<circle class="st17" cx="294.6" cy="130.2" r="10.1"/>
	</g>
	<g>
		<ellipse class="st17" cx="249.4" cy="123.5" rx="47.1" ry="57"/>
		<path class="st71" d="M251.5,112.9c0,0-1.1,19.6-3.6,22.9c-2.5,3.3-5.1,12.3,5.4,12.3"/>
	</g>
	<path class="st72" d="M236.2,154.7c0,0,13.7,14.3,26.4,0"/>
	<g>
		<path class="st71" d="M258.9,106.2c0,0,10.5-9.9,21,1.6"/>
		<path class="st71" d="M240,106.2c0,0-10.5-9.9-21,1.6"/>
	</g>
	<path class="st18" d="M248.8,61.1c-55.1,0-46.5,59-46.5,59s2.3-25.5,25.1-25.5c18.4,0,31.7-8.4,38.7-12.4
		c8.1,4.4,29.1,19.5,29.1,37.4l7.6-0.2C302.8,119.5,300.7,61.1,248.8,61.1z"/>
	<g>
		<g>
			<g>
				<path class="st3" d="M268.6,212.1c-3.9-1.2-8.5,0.5-10.6,4c-0.5-4-1.1-8.1-2.8-11.7c-1.8-3.6-5-6.8-9.1-7.3
					c-5-0.7-9.7,2.9-11.9,7.4c-2.2,4.5-2.4,9.7-2.2,14.7c0.5,11.9,2.8,23.8,6.9,35c-2.5-1.8-5.6-2.8-8.7-2.8c-1.8,0-3.6,0.3-5,1.3
					c-2.5,1.8-3.1,5.4-2.3,8.4c0,0-0.3,6.8,26.5,38.6l14.7-21.1c9.2-11.9,6.5-16.3,3.3-19.7c-2-2.2-5.2-3.2-8.1-2.5
					c-0.3,0.1-0.6,0.2-0.9,0.3c0.6-1.7,1.3-3.4,2.2-5c2.5-4.6,6.1-8.5,9.3-12.7c3.2-4.2,6-8.9,6.3-14.2
					C276.5,219.4,273.6,213.6,268.6,212.1z"/>
			</g>
			<line class="st73" x1="249.4" y1="224" x2="249.4" y2="307.7"/>
		</g>
		<line class="st73" x1="236.1" y1="264.2" x2="249.4" y2="280.7"/>
		<line class="st73" x1="241.3" y1="235.5" x2="249.3" y2="248.2"/>
		<line class="st73" x1="249.4" y1="236.9" x2="257.7" y2="224.8"/>
	</g>
	<g>
		<path class="st21" d="M272.3,306.2v30.9c0,7.1-4,9.4-8.8,9.4h-28.4c-4.9,0-8.8-2.2-8.8-9.4v-30.9"/>
	</g>
	<g>
		<path class="st17" d="M219.6,314.3l-6.5,17.7c29.5,8.8,28.5,5.6,29,2.9c0.3-1.5-12.1-3.3-12.1-3.3c7.7,0.6,14.6,3.3,15-0.5
			c0.3-2.9-15.1-5-15.1-5s0,0,2.1,0.2c2.1,0.2,12.9,2.9,13.6-0.7c0.7-3.7-13.7-4.5-13.7-4.5c7.3,0.8,14.9,1.5,14.4-1.9
			c-0.4-3.1-14.3-4.3-14.3-4.3L219.6,314.3z"/>
		<path class="st17" d="M279,314.3l6.5,17.7c-29.5,8.8-28.5,5.6-29,2.9c-0.3-1.5,12.1-3.3,12.1-3.3c-7.7,0.6-14.6,3.3-15-0.5
			c-0.3-2.9,15.1-5,15.1-5s0,0-2.1,0.2c-2.1,0.2-12.9,2.9-13.6-0.7c-0.7-3.7,13.7-4.5,13.7-4.5c-7.3,0.8-14.9,1.5-14.4-1.9
			c0.4-3.1,14.3-4.3,14.3-4.3L279,314.3z"/>
	</g>
	<g class="st37">
		<g>
			<circle class="st18" cx="222" cy="143.9" r="1.2"/>
			<circle class="st18" cx="217.5" cy="152.3" r="1.2"/>
			<circle class="st18" cx="223.3" cy="150.1" r="1.2"/>
			<circle class="st18" cx="228.8" cy="146.8" r="1.2"/>
			<circle class="st18" cx="216.7" cy="146.4" r="1.2"/>
		</g>
		<g>
			<circle class="st18" cx="276.8" cy="143.9" r="1.2"/>
			<circle class="st18" cx="281.4" cy="152.3" r="1.2"/>
			<circle class="st18" cx="275.6" cy="150.1" r="1.2"/>
			<circle class="st18" cx="270" cy="146.8" r="1.2"/>
			<circle class="st18" cx="282.2" cy="146.4" r="1.2"/>
		</g>
	</g>
	<g>
		<g>
			<circle class="st74" cx="230.5" cy="125.1" r="14.1"/>
			<circle class="st74" cx="269" cy="125.1" r="14.1"/>
		</g>
		<line class="st74" x1="243.8" y1="119.8" x2="255.7" y2="119.8"/>
		<g>
			<line class="st75" x1="282.3" y1="119.7" x2="296.1" y2="119.7"/>
			<line class="st75" x1="202.8" y1="119.7" x2="217.2" y2="119.7"/>
		</g>
	</g>
	<g>
		<circle class="st21" cx="230.4" cy="125.5" r="3.5"/>
		<circle class="st21" cx="268.8" cy="125.5" r="3.5"/>
	</g>
	<path class="st40" d="M216.3,90.2c0,0,36.3,3.8,48.4-17.7C264.7,72.5,245.3,86.5,216.3,90.2z"/>
	<g>
		<path class="st76" d="M208.7,77.8c0,0,12.6-17.6,38.9-17.6"/>
		<line class="st77" x1="250.8" y1="60.1" x2="251.4" y2="60.1"/>
	</g>
	<path class="st24" d="M301.4,282.5c0-0.6,0-1.1,0-1.7c0-0.4,0-0.7,0-1.1c0-0.6,0-1.2,0-1.8c0-0.3,0-0.7,0-1c0-0.6,0-1.3-0.1-1.9
		c0-0.3,0-0.6,0-0.9c0-0.7-0.1-1.5-0.1-2.2c0-0.2,0-0.4,0-0.6c0-0.9-0.1-1.9-0.1-2.8c-0.9,17.6-5.3,66.8-25.8,93.5
		c7.9,0.7,15.8,1.2,23.5,0c0.4-12.2,1.6-43.3,2.6-70.4c0,0,0-0.1,0-0.1c0-0.8,0.1-1.7,0.1-2.6c0-0.3,0-0.6,0-0.9c0-0.6,0-1.2,0-1.8
		c0-0.4,0-0.7,0-1.1c0-0.6,0-1.1,0-1.7C301.4,283.3,301.4,282.9,301.4,282.5z"/>
	<g>
		<path class="st15" d="M210.9,199.5l-5.9,23l-3.7,16.7c-36,65.1,29,74.6,29,74.6l-5.5,22.1C127.4,312.4,187,214.7,187,214.7"/>
		<path class="st15" d="M311.6,214.7c0,0,59.6,97.7-37.8,121.3l-5.5-22.1c0,0,65.1-9.6,29-74.6l-3.7-16.7l-5.9-23"/>
	</g>
	<path class="st78" d="M198.2,326c0,0,14.9,11.2,26.6,10l5.5-22.1c0,0-12.8-0.4-33.3-18.7"/>
	<path class="st78" d="M300.1,326.3c0,0-13.9,10.9-25.6,9.7l-5.5-22.1c0,0,11.8-0.1,32.3-18.4"/>
</g>
</svg>
