<?xml version="1.0" encoding="utf-8"?>
<!-- Generator: Adobe Illustrator 23.0.6, SVG Export Plug-In . SVG Version: 6.00 Build 0)  -->
<svg version="1.1" xmlns="http://www.w3.org/2000/svg" xmlns:xlink="http://www.w3.org/1999/xlink" x="0px" y="0px"
	 viewBox="0 0 499.5 382.5" style="enable-background:new 0 0 499.5 382.5;" xml:space="preserve">
<style type="text/css">
	.st0{fill:#E3FFFF;}
	.st1{display:none;}
	.st2{display:inline;}
	.st3{fill:#33CC99;}
	.st4{fill:none;stroke:#3EA88C;stroke-width:0.7868;stroke-linecap:round;stroke-miterlimit:10;}
	.st5{opacity:0.48;fill:#3EA88C;}
	.st6{fill:none;stroke:#FFFFFF;stroke-linecap:round;stroke-miterlimit:10;}
	.st7{fill:#96F7BB;}
	.st8{fill:none;stroke:#3EA88C;stroke-width:1.5843;stroke-linecap:round;stroke-miterlimit:10;}
	.st9{fill:none;stroke:#FFFFFF;stroke-width:2.1124;stroke-linecap:round;stroke-miterlimit:10;}
	.st10{fill:#CCFFCF;}
	.st11{fill:none;stroke:#3EA88C;stroke-width:2.5741;stroke-linecap:round;stroke-miterlimit:10;}
	.st12{fill:none;stroke:#FFFFFF;stroke-width:3.4322;stroke-linecap:round;stroke-miterlimit:10;}
	.st13{fill:#3EA88C;}
	.st14{fill:#F39698;}
	.st15{fill:#6666FF;}
	.st16{fill:none;stroke:#3EA88C;stroke-width:0.7668;stroke-linecap:round;stroke-miterlimit:10;}
	.st17{fill:#F8B0A7;}
	.st18{fill:#E92175;}
	.st19{fill:none;stroke:#6666FF;stroke-width:3.8512;stroke-miterlimit:10;}
	.st20{fill:none;stroke:#4A54CB;stroke-width:3.8512;stroke-miterlimit:10;}
	.st21{fill:#333333;}
	.st22{fill:#CC7A66;}
	.st23{fill:none;stroke:#F39698;stroke-width:1.3172;stroke-linecap:round;stroke-miterlimit:10;}
	.st24{fill:#4A54CB;}
	.st25{fill:#DDAE8E;}
	.st26{fill:none;stroke:#D78181;stroke-width:1.1263;stroke-linecap:round;stroke-miterlimit:10;}
	.st27{fill:none;stroke:#E92175;stroke-width:1.1263;stroke-linecap:round;stroke-miterlimit:10;}
	.st28{fill:none;stroke:#3EA88C;stroke-width:0.7831;stroke-linecap:round;stroke-miterlimit:10;}
	.st29{fill:none;stroke:#D78181;stroke-width:1.1361;stroke-linecap:round;stroke-miterlimit:10;}
	.st30{fill:none;stroke:#FFFFFF;stroke-width:1.191;stroke-linecap:round;stroke-miterlimit:10;}
	.st31{fill:none;stroke:#3EA88C;stroke-width:1.191;stroke-linecap:round;stroke-miterlimit:10;}
	.st32{fill:none;stroke:#FFFFFF;stroke-width:1.191;stroke-miterlimit:10;}
	.st33{fill:#5A5A5A;}
	.st34{fill:none;stroke:#E92175;stroke-width:0.7964;stroke-linecap:round;stroke-miterlimit:10;}
	.st35{fill:#E92175;stroke:#CF2169;stroke-width:0.8556;stroke-linecap:round;stroke-miterlimit:10;}
	.st36{fill:none;stroke:#CF2169;stroke-width:0.8556;stroke-linecap:round;stroke-miterlimit:10;}
	.st37{opacity:0.6;}
	.st38{fill:none;stroke:#FFFFFF;stroke-width:1.2164;stroke-miterlimit:10;}
	.st39{fill:none;stroke:#FFFFFF;stroke-width:1.2164;stroke-linecap:round;stroke-miterlimit:10;}
	.st40{fill:#CF2169;}
	.st41{fill:none;stroke:#FFFFFF;stroke-width:0.6883;stroke-linecap:round;stroke-miterlimit:10;}
	.st42{fill:none;stroke:#FFFFFF;stroke-width:1.1771;stroke-linecap:round;stroke-miterlimit:10;}
	.st43{fill:none;stroke:#5A5A5A;stroke-width:1.3172;stroke-linecap:round;stroke-miterlimit:10;}
	.st44{fill:none;stroke:#FFFFFF;stroke-width:0.6586;stroke-linecap:round;stroke-miterlimit:10;}
	.st45{fill:none;stroke:#66C3FF;stroke-width:0.9929;stroke-linecap:round;stroke-linejoin:round;}
	.st46{fill:none;stroke:#66C3FF;stroke-width:0.9929;stroke-linecap:round;stroke-linejoin:round;stroke-dasharray:4.7143,4.7143;}
	.st47{fill:none;stroke:#66C3FF;stroke-width:0.9929;stroke-linecap:round;stroke-linejoin:round;stroke-dasharray:4.9786,4.9786;}
	.st48{fill:none;stroke:#66C3FF;stroke-width:0.9929;stroke-linecap:round;stroke-linejoin:round;stroke-dasharray:4.8595,4.8595;}
	.st49{fill:#6666FF;stroke:#4A54CB;stroke-width:0.5704;stroke-linecap:round;stroke-miterlimit:10;}
	.st50{fill:#B66E4D;}
	.st51{fill:#6C3220;}
	.st52{fill:#9D5F44;}
	.st53{fill:none;stroke:#924D2F;stroke-width:2.0021;stroke-linecap:round;stroke-miterlimit:10;}
	.st54{fill:none;stroke:#FFFFFF;stroke-width:1.7775;stroke-linecap:round;stroke-miterlimit:10;}
	.st55{fill:none;stroke:#5A5A5A;stroke-width:2.0021;stroke-linecap:round;stroke-miterlimit:10;}
	.st56{fill:none;stroke:#FFFFFF;stroke-width:2.1622;stroke-miterlimit:10;}
	.st57{fill:none;stroke:#FFFFFF;stroke-width:2.1622;stroke-linecap:round;stroke-miterlimit:10;}
	.st58{opacity:0.26;fill:#F8B0A7;}
	.st59{fill:#33CC99;stroke:#3EA88C;stroke-width:1.0139;stroke-linecap:round;stroke-miterlimit:10;}
	.st60{fill:none;stroke:#4A54CB;stroke-width:0.7132;stroke-linecap:round;stroke-miterlimit:10;}
	.st61{fill:none;stroke:#FFFFFF;stroke-width:1.2743;stroke-linecap:round;stroke-miterlimit:10;}
	.st62{fill:none;stroke:#CF2169;stroke-width:0.7132;stroke-linecap:round;stroke-miterlimit:10;}
	.st63{fill:#E92175;stroke:#CF2169;stroke-width:1.0143;stroke-linecap:round;stroke-miterlimit:10;}
	.st64{fill:none;stroke:#FFFFFF;stroke-width:0.9329;stroke-linecap:round;stroke-miterlimit:10;}
	.st65{fill:none;stroke:#D78181;stroke-width:1.9046;stroke-linecap:round;stroke-miterlimit:10;}
	.st66{fill:none;stroke:#D78181;stroke-width:1.8882;stroke-linecap:round;stroke-miterlimit:10;}
	.st67{fill:none;stroke:#FFFFFF;stroke-width:1.9965;stroke-linecap:round;stroke-miterlimit:10;}
	.st68{fill:none;stroke:#3EA88C;stroke-width:1.9965;stroke-linecap:round;stroke-miterlimit:10;}
	.st69{fill:none;stroke:#FFFFFF;stroke-width:1.9965;stroke-miterlimit:10;}
	.st70{fill:none;stroke:#E92175;stroke-width:1.3352;stroke-linecap:round;stroke-miterlimit:10;}
	.st71{fill:none;stroke:#D78181;stroke-width:1.9339;stroke-linecap:round;stroke-miterlimit:10;}
	.st72{fill:none;stroke:#E92175;stroke-width:1.9339;stroke-linecap:round;stroke-miterlimit:10;}
	.st73{fill:none;stroke:#3EA88C;stroke-width:1.3446;stroke-linecap:round;stroke-miterlimit:10;}
	.st74{fill:none;stroke:#FFFFFF;stroke-width:2.0886;stroke-miterlimit:10;}
	.st75{fill:none;stroke:#FFFFFF;stroke-width:2.0886;stroke-linecap:round;stroke-miterlimit:10;}
	.st76{fill:none;stroke:#FFFFFF;stroke-width:1.1818;stroke-linecap:round;stroke-miterlimit:10;}
	.st77{fill:none;stroke:#FFFFFF;stroke-width:2.021;stroke-linecap:round;stroke-miterlimit:10;}
	.st78{fill:#6666FF;stroke:#4A54CB;stroke-width:0.9793;stroke-linecap:round;stroke-miterlimit:10;}
</style>
<g id="BG">
</g>
<g id="Background" class="st1">
</g>
<g id="Design">
	<g>
		<path class="st0" d="M484.2,187.2c0.4-13.7,2.4-27.4,1.7-41.1c-0.5-10.6-2.7-21-5.4-31.2c-9.5-36-29.5-73.4-64.8-85.1
			c-22.6-7.5-47.2-3-70.8,0.6c-6.2,0.9-12.4,1.8-18.6,2.1c-39,2-77.1-17.6-115.8-13c-28,3.4-53.4,19.2-81.4,23
			c-16.3,2.2-33.2,0.3-49,4.9c-13.5,3.9-25.1,29.7-26.5,47.2c-0.6,7.8-1.9,15.4-4,23l-3.3,12c-2.1,7.6-4.9,15-8.3,22.1
			c-7.1,14.6-15.1,28.8-20.8,44c-6.9,18.6-10.4,38.4-10.1,58.3c0.4,26.7,8,53.7,23.7,75.4c15.7,21.6,40,37.5,66.6,40.5
			c19.2,2.2,38.5-2.1,57.5-5.1c37.3-5.9,75.3-7,112.9-3.4c11.5,1.1,23.2,2.7,34.4,0c7-1.7,13.5-5,20.2-7.6
			c24.4-9.4,51.2-9.8,77.1-13.6c25.9-3.7,53.1-12.1,69.3-32.6c12.8-16.2,16.9-37.8,17.2-58.4C486.6,228.5,483.6,207.8,484.2,187.2z"
			/>
	</g>
	<path class="st50" d="M130.2,261.9c0,0-12.5-19.5-16.5-17.3c-3.1,1.7,3.4,9.3,6.4,12.5l-7.1-2.1c0,0-14-3.6-15.5-0.8
		c-1.3,2.5,3.3,4.2,9,5.8c-4.3-0.9-10.2-1.8-10.6,0.7c-0.6,3.8,11,4.8,13.1,5.4c2.1,0.6,2.1,0.6,2.1,0.6s-15.8-3.3-16.5-0.4
		c-1,3.9,6.7,3.6,14.5,5.7c0,0-12.7-2.5-12.9-1c-0.5,2.8-2.6,5.5,29.2,7.2l0-2.4l1,0.6L130.2,261.9z"/>
	<path class="st21" d="M338.9,340c0-0.2-0.2-0.3-0.3-0.3l-43.1-2.2c-0.2,0-0.3-0.2-0.3-0.3v-4.8c0-0.2-0.2-0.4-0.4-0.3l-51.2,11.5
		c-0.2,0-0.3,0.2-0.3,0.4l1,15.7c7.9,0.3,15.8,0.9,23.7,1.7c11.5,1.1,23.2,2.7,34.4,0c7-1.7,13.5-5,20.2-7.6
		c6.4-2.5,13-4.3,19.7-5.8L338.9,340z"/>
	<path class="st51" d="M292,17.6c-20.2-0.7-70.7,6.1-63.4,94.2c9.1,109.7,21.6,82.4,21.6,82.4L292,192l41.7,2.3
		c0,0,12.6,27.3,21.6-82.4C362.6,23.7,312.1,16.9,292,17.6z"/>
	<g>
		<path class="st3" d="M293.7,164.1c-0.6,0-1.1,0-1.7-0.1v0c0,0-0.1,0-0.1,0c0,0-0.1,0-0.1,0v0c-0.6,0-1.1,0-1.7,0.1
			c-0.6,0-1.3-0.1-1.9-0.1l0,0.2c-51.2,2.4-60.8,21.4-60.8,21.4l13.9,15.7c0,0-4.7,36.9-3.7,64.1c1.4,35.8,2.9,78.4,2.9,78.4H288
			h3.6h0.5"/>
		<path class="st3" d="M289.6,164.1c0.6,0,1.1,0,1.7-0.1v0c0,0,0.1,0,0.1,0c0,0,0.1,0,0.1,0v0c0.6,0,1.1,0,1.7,0.1
			c0.6,0,1.3-0.1,1.9-0.1l0,0.2c51.2,2.4,60.8,21.4,60.8,21.4l-13.9,15.7c0,0,4.7,36.9,3.7,64.1c-1.4,35.8-2.9,78.4-2.9,78.4h-47.4
			h-3.6h-0.5"/>
	</g>
	<path class="st52" d="M302.8,164.6v-26.8h-21.9v26.8c-10.8,0.9-19.6,2.6-26.6,4.6c0.8,23.4,17.3,23.8,37.6,23.8
		c20.2,0,36.7-0.4,37.6-23.8C322.4,167.2,313.7,165.5,302.8,164.6z"/>
	<g>
		<circle class="st50" cx="245.1" cy="98.1" r="10.4"/>
		<circle class="st50" cx="338.8" cy="98.1" r="10.4"/>
	</g>
	<g>
		<ellipse class="st50" cx="292" cy="91.1" rx="48.8" ry="59"/>
		<path class="st53" d="M294.1,80.2c0,0-1.1,20.3-3.8,23.7c-2.6,3.4-5.3,12.8,5.6,12.8"/>
	</g>
	<g>
		<path class="st53" d="M301.7,73.2c0,0,10.9-10.3,21.8,1.7"/>
		<path class="st53" d="M282.2,73.2c0,0-10.9-10.3-21.8,1.7"/>
	</g>
	<path class="st51" d="M291.3,26.5c-57.1,0-48.1,61.1-48.1,61.1s2.3-26.4,26-26.4c19.1,0,32.8-8.7,40-12.8
		c8.4,4.5,30.1,20.2,30.1,38.8l7.8-0.2C347.2,87,345,26.5,291.3,26.5z"/>
	<g>
		<circle class="st21" cx="269.7" cy="90.8" r="3.6"/>
		<circle class="st21" cx="309.4" cy="90.8" r="3.6"/>
	</g>
	<g>
		<path class="st54" d="M249.8,43.8c0,0,13-18.3,40.2-18.3"/>
		<line class="st54" x1="293.4" y1="25.5" x2="294" y2="25.5"/>
	</g>
	<path class="st13" d="M313.8,343.7h28.9c0,0,1.6-42.6,2.9-78.4c0.3-7.6,0.1-15.9-0.3-24C344.3,260.8,339.2,317.9,313.8,343.7z"/>
	<ellipse class="st51" cx="292.8" cy="132.7" rx="12.4" ry="7.3"/>
	<path class="st40" d="M292.8,140.1c2.8,0,5.3-0.5,7.4-1.4c-0.6-2.3-3.6-2.4-7.4-2.4s-6.8,0.1-7.4,2.4
		C287.5,139.5,290,140.1,292.8,140.1z"/>
	<path class="st17" d="M302.7,128.4c-2.3-1.8-5.9-3-10-3c-4.1,0-7.7,1.2-10,3H302.7z"/>
	<path class="st3" d="M227.4,185.5c0,0-17.3,34.3-30.9,81.6c-19.9,9.5-67.2-7.7-67.2-7.7l-5.7,19.3c0,0,55.6,18.8,80.3,13.8
		s46.4-98.3,46.4-98.3L227.4,185.5z"/>
	<path class="st55" d="M339.5,87.6c0,0-3.7,39.5-28.6,43.4"/>
	<path class="st21" d="M307.3,134.7h-3c-2,0-3.7-1.6-3.7-3.7v0c0-2,1.6-3.7,3.7-3.7h3c2,0,3.7,1.6,3.7,3.7v0
		C310.9,133,309.3,134.7,307.3,134.7z"/>
	<g>
		<g>
			<circle class="st56" cx="272.4" cy="92.7" r="14.6"/>
			<circle class="st56" cx="312.2" cy="92.7" r="14.6"/>
		</g>
		<line class="st56" x1="286.1" y1="87.3" x2="298.5" y2="87.3"/>
		<g>
			<line class="st57" x1="326" y1="87.2" x2="340.3" y2="87.2"/>
			<line class="st57" x1="243.6" y1="87.2" x2="258.6" y2="87.2"/>
		</g>
	</g>
	<path class="st58" d="M301.7,41.5c0,0-9.5,14.1-43.2,14.1C258.6,55.6,288.1,50.5,301.7,41.5z"/>
	<g class="st37">
		<g>
			<circle class="st22" cx="265.4" cy="108.8" r="1.2"/>
			<circle class="st22" cx="261" cy="116.9" r="1.2"/>
			<circle class="st22" cx="266.6" cy="114.9" r="1.2"/>
			<circle class="st22" cx="272.1" cy="111.6" r="1.2"/>
			<circle class="st22" cx="260.2" cy="111.2" r="1.2"/>
		</g>
		<g>
			<circle class="st22" cx="319.1" cy="108.8" r="1.2"/>
			<circle class="st22" cx="323.6" cy="116.9" r="1.2"/>
			<circle class="st22" cx="317.9" cy="114.9" r="1.2"/>
			<circle class="st22" cx="312.5" cy="111.6" r="1.2"/>
			<circle class="st22" cx="324.4" cy="111.2" r="1.2"/>
		</g>
	</g>
	<path class="st50" d="M316.2,290.6c0,0-21.4-8.9-23.5-4.8c-1.6,3.2,8.1,5.7,12.4,6.6l-7,2.3c0,0-13.5,5-13.1,8.2
		c0.4,2.8,5.2,1.6,10.7-0.4c-4,1.7-9.4,4.4-8.3,6.6c1.7,3.4,11.8-2.3,13.8-3c2-0.7,2-0.7,2-0.7s-14.8,6.3-13.8,9.1
		c1.4,3.7,7.6-0.9,15.1-3.6c0,0-11.8,5.2-11.2,6.6c1.2,2.6,1,6,28.2-10.7l-1.4-1.9l1.1,0L316.2,290.6z"/>
	<path class="st3" d="M356.3,185.5c0,0,61.7,101.2-39.2,125.6l-5.7-22.9c0,0,67.4-9.9,30.1-77.3l-3.9-17.3l-6.1-23.8"/>
	<path class="st59" d="M344.4,301.1c0,0-14.4,11.2-26.5,10l-5.7-22.9c0,0,12.2-0.1,33.4-19"/>
</g>
</svg>
