<?xml version="1.0" encoding="utf-8"?>
<!-- Generator: Adobe Illustrator 23.0.6, SVG Export Plug-In . SVG Version: 6.00 Build 0)  -->
<svg version="1.1" xmlns="http://www.w3.org/2000/svg" xmlns:xlink="http://www.w3.org/1999/xlink" x="0px" y="0px"
	 viewBox="0 0 457 368.9" style="enable-background:new 0 0 457 368.9;" xml:space="preserve">
<style type="text/css">
	.st0{display:none;}
	.st1{display:inline;}
	.st2{fill:#E3FFFF;}
	.st3{fill:#33CC99;}
	.st4{fill:none;stroke:#3EA88C;stroke-width:0.7868;stroke-linecap:round;stroke-miterlimit:10;}
	.st5{opacity:0.48;fill:#3EA88C;}
	.st6{fill:none;stroke:#FFFFFF;stroke-linecap:round;stroke-miterlimit:10;}
	.st7{fill:#96F7BB;}
	.st8{fill:none;stroke:#3EA88C;stroke-width:1.5843;stroke-linecap:round;stroke-miterlimit:10;}
	.st9{fill:none;stroke:#FFFFFF;stroke-width:2.1124;stroke-linecap:round;stroke-miterlimit:10;}
	.st10{fill:#CCFFCF;}
	.st11{fill:none;stroke:#3EA88C;stroke-width:2.5741;stroke-linecap:round;stroke-miterlimit:10;}
	.st12{fill:none;stroke:#FFFFFF;stroke-width:3.4322;stroke-linecap:round;stroke-miterlimit:10;}
	.st13{fill:none;stroke:#3EA88C;stroke-width:0.7668;stroke-linecap:round;stroke-miterlimit:10;}
	.st14{fill:#F8B0A7;}
	.st15{fill:#E92175;}
	.st16{fill:none;stroke:#6666FF;stroke-width:3.8512;stroke-miterlimit:10;}
	.st17{fill:none;stroke:#4A54CB;stroke-width:3.8512;stroke-miterlimit:10;}
	.st18{fill:#6666FF;}
	.st19{fill:#333333;}
	.st20{fill:#CC7A66;}
	.st21{fill:none;stroke:#F39698;stroke-width:1.3172;stroke-linecap:round;stroke-miterlimit:10;}
	.st22{fill:#F39698;}
	.st23{fill:#4A54CB;}
	.st24{fill:#DDAE8E;}
	.st25{fill:none;stroke:#D78181;stroke-width:1.1263;stroke-linecap:round;stroke-miterlimit:10;}
	.st26{fill:none;stroke:#E92175;stroke-width:1.1263;stroke-linecap:round;stroke-miterlimit:10;}
	.st27{fill:none;stroke:#3EA88C;stroke-width:0.7831;stroke-linecap:round;stroke-miterlimit:10;}
	.st28{fill:none;stroke:#D78181;stroke-width:1.1361;stroke-linecap:round;stroke-miterlimit:10;}
	.st29{fill:none;stroke:#FFFFFF;stroke-width:1.191;stroke-linecap:round;stroke-miterlimit:10;}
	.st30{fill:none;stroke:#3EA88C;stroke-width:1.191;stroke-linecap:round;stroke-miterlimit:10;}
	.st31{fill:none;stroke:#FFFFFF;stroke-width:1.191;stroke-miterlimit:10;}
	.st32{fill:#5A5A5A;}
	.st33{fill:none;stroke:#E92175;stroke-width:0.7964;stroke-linecap:round;stroke-miterlimit:10;}
	.st34{fill:#E92175;stroke:#CF2169;stroke-width:0.8556;stroke-linecap:round;stroke-miterlimit:10;}
	.st35{fill:none;stroke:#CF2169;stroke-width:0.8556;stroke-linecap:round;stroke-miterlimit:10;}
	.st36{fill:none;stroke:#4A54CB;stroke-width:0.5704;stroke-linecap:round;stroke-miterlimit:10;}
	.st37{opacity:0.6;}
	.st38{fill:none;stroke:#FFFFFF;stroke-width:1.2164;stroke-miterlimit:10;}
	.st39{fill:none;stroke:#FFFFFF;stroke-width:1.2164;stroke-linecap:round;stroke-miterlimit:10;}
	.st40{fill:#CF2169;}
	.st41{fill:none;stroke:#FFFFFF;stroke-width:0.6883;stroke-linecap:round;stroke-miterlimit:10;}
	.st42{fill:none;stroke:#FFFFFF;stroke-width:1.1771;stroke-linecap:round;stroke-miterlimit:10;}
	.st43{fill:none;stroke:#5A5A5A;stroke-width:1.3172;stroke-linecap:round;stroke-miterlimit:10;}
	.st44{fill:none;stroke:#FFFFFF;stroke-width:0.6586;stroke-linecap:round;stroke-miterlimit:10;}
	.st45{fill:none;stroke:#66C3FF;stroke-width:0.9929;stroke-linecap:round;stroke-linejoin:round;}
	.st46{fill:none;stroke:#66C3FF;stroke-width:0.9929;stroke-linecap:round;stroke-linejoin:round;stroke-dasharray:4.7143,4.7143;}
	.st47{fill:none;stroke:#66C3FF;stroke-width:0.9929;stroke-linecap:round;stroke-linejoin:round;stroke-dasharray:4.9786,4.9786;}
	.st48{fill:none;stroke:#66C3FF;stroke-width:0.9929;stroke-linecap:round;stroke-linejoin:round;stroke-dasharray:4.8595,4.8595;}
	.st49{fill:#6666FF;stroke:#4A54CB;stroke-width:0.5704;stroke-linecap:round;stroke-miterlimit:10;}
</style>
<g id="BG">
</g>
<g id="Background" class="st0">
	<g class="st1">
		<path class="st2" d="M-619.9,0.7c9.6,34.5-25.7,63.3-42,95.2c-15.5,30.3-13,69.1,6.3,97.2c11.1,16.1,27.2,29,34.4,47.2
			c8.7,22.3,2,47.3,3.2,71.1c1.6,30.9,18.3,61.8,45.9,75.8c27.7,14,61.1,9.6,91.1,1.6c30-8.1,59.9-19.5,90.9-18.6
			c52.9,1.5,100.9,38.6,153.8,35.6c49-2.9,91.1-39.9,140.1-42.6c54.7-3,108.6,37.2,160.9,20.9c11-3.4,21.1-9.2,31.7-13.9
			c65.6-28.9,141.5-11.2,209.9,10.3c37.7,11.8,76.7,24.5,113.1,9.3V0.7H-619.9z"/>
	</g>
	<g class="st1">
		<path class="st2" d="M-619.9,0.7c9.6,34.5-25.7,63.3-42,95.2c-15.5,30.3-13,69.1,6.3,97.2c11.1,16.1,27.2,29,34.4,47.2
			c8.7,22.3,2,47.3,3.2,71.1c1.6,30.9,18.3,61.8,45.9,75.8c27.7,14,61.1,9.6,91.1,1.6c30-8.1,59.9-19.5,90.9-18.6
			c52.9,1.5,100.9,38.6,153.8,35.6c49-2.9,91.1-39.9,140.1-42.6c54.7-3,108.6,37.2,160.9,20.9c11-3.4,21.1-9.2,31.7-13.9
			c65.6-28.9,141.5-11.2,209.9,10.3c37.7,11.8,76.7,24.5,113.1,9.3V0.7H-619.9z"/>
	</g>
	<g class="st1">
		<circle class="st3" cx="384" cy="100.5" r="20"/>
		<polyline class="st4" points="384,137.3 384,114.1 372.6,105.1 		"/>
		<line class="st4" x1="384" y1="115.6" x2="384" y2="89.6"/>
		<line class="st4" x1="384" y1="102.1" x2="392.7" y2="93.5"/>
		<path class="st5" d="M401.5,90.9c0,0.3,0.2,23-24.9,28.3c2.3,0.9,4.8,1.4,7.4,1.4c11,0,20-9,20-20C404,97,403.1,93.7,401.5,90.9z"
			/>
		<g>
			<path class="st6" d="M369.5,91.4c0,0,1.7-5.7,8.8-7.7"/>
			<line class="st6" x1="379.8" y1="83.2" x2="379.8" y2="83.2"/>
		</g>
	</g>
	<g class="st1">
		<path class="st3" d="M140.5,100.6c-0.7-0.6-2.9-2.8-0.4-5.5c0.3-0.3,0.7-0.6,1-0.9c1.4-1.5,2.2-3.1,2.6-4.5c0,0,0-0.1,0-0.1
			c0-0.1,0.1-0.3,0.1-0.4c0-0.1,0-0.1,0.1-0.2c0-0.1,0.1-0.3,0.1-0.4c0,0,0-0.1,0-0.1c0.2-1,0.2-1.6,0.2-1.6c0-0.3,0-0.5,0-0.8
			c0-6.8-5.5-12.3-12.3-12.3s-12.3,5.5-12.3,12.3c0,0.3,0,0.5,0,0.8l0,0c0,0,0.1,4.7,3.7,8c3.6,3.3-0.2,6-0.2,6l0,0
			c-3.7,2.7-6,7-6,11.9c0,8.2,6.6,14.8,14.8,14.8s14.8-6.6,14.8-14.8C146.8,107.7,144.3,103.3,140.5,100.6z"/>
		<path class="st3" d="M132,73.7c-6.8,0-12.3,5.5-12.3,12.3c0,0.3,0,0.5,0,0.8l0,0c0,0,0.1,4.7,3.7,8c3.6,3.3-0.2,6-0.2,6l0,0
			c-3.7,2.7-6,7-6,11.9c0,8.2,6.6,14.8,14.8,14.8"/>
		<line class="st4" x1="132" y1="149.4" x2="132" y2="84.3"/>
		<line class="st4" x1="122.7" y1="109.8" x2="132" y2="119.2"/>
		<line class="st4" x1="132" y1="92.4" x2="136.8" y2="87.6"/>
		<line class="st4" x1="132" y1="108.8" x2="137.5" y2="103.4"/>
		<g>
			<path class="st6" d="M122.3,84.5c0,0,1.7-5.7,8.8-7.7"/>
			<line class="st6" x1="132.6" y1="76.4" x2="132.6" y2="76.4"/>
		</g>
		<path class="st5" d="M144.6,104.8c-0.3,4.9-2.4,16.9-15.5,22.3c1,0.2,1.9,0.3,3,0.3c8.2,0,14.8-6.6,14.8-14.8
			C146.8,109.8,146,107.1,144.6,104.8z"/>
		<g>
			<path class="st5" d="M141.3,94c1.3-1.4,2.1-3,2.5-4.4c0,0,0-0.1,0-0.1c0-0.1,0.1-0.3,0.1-0.4c0-0.1,0-0.1,0.1-0.2
				c0-0.1,0.1-0.3,0.1-0.4c0,0,0-0.1,0-0.1c0.2-1,0.2-1.6,0.2-1.6c0-0.3,0-0.5,0-0.8c0-2.1-0.5-4.1-1.5-5.8
				C142.9,80.2,142.5,88.9,141.3,94z"/>
			<path class="st5" d="M139.1,98.5C139.1,98.5,139.1,98.5,139.1,98.5C139.1,98.5,139.1,98.5,139.1,98.5z"/>
		</g>
	</g>
	<g class="st1">
		<path class="st3" d="M88.4,129.2L88.4,129.2c-7.6,0-13.7-6.1-13.7-13.7V90.6c0-7.6,6.1-13.7,13.7-13.7h0c7.6,0,13.7,6.1,13.7,13.7
			v24.9C102.2,123,96,129.2,88.4,129.2z"/>
		<path class="st3" d="M88.4,129.2L88.4,129.2c-7.6,0-13.7-6.1-13.7-13.7V90.6c0-7.6,6.1-13.7,13.7-13.7h0"/>
		<line class="st4" x1="88.4" y1="144.4" x2="88.4" y2="90.2"/>
		<line class="st4" x1="88.4" y1="119" x2="97.4" y2="110"/>
		<line class="st4" x1="80.4" y1="96" x2="88.1" y2="103.7"/>
		<g>
			<path class="st6" d="M78.1,87.7c0,0,1.7-5.7,8.8-7.7"/>
			<line class="st6" x1="88.4" y1="79.5" x2="88.4" y2="79.5"/>
		</g>
		<path class="st5" d="M102.2,115.5v-3.6c-1.8,4-7.3,13.6-17.9,16.7c1.3,0.4,2.7,0.6,4.1,0.6C96,129.2,102.2,123,102.2,115.5z"/>
	</g>
	<g class="st1">
		<path class="st7" d="M64.3,383.3c11-3.4,21.1-9.2,31.7-13.9c65.6-28.9,141.5-11.2,209.9,10.3c37.7,11.8,76.7,24.5,113.1,9.3V137.9
			c-71.2-5.4-156.8,3.6-185.8,10.7c-34.9,8.5-114.9-4.2-114.9-4.2C65.2,134,10.9,123.7-42.6,131.2c-17.6,2.5-35.2,6.9-53,5.7
			c-21.7-1.4-42.5-11.1-64.2-10.5c-20.2,0.6-39.1,10-59.1,13.1c-37,5.7-74.3-10.6-111.6-7.3c-20.7,1.8-40.6,9.6-61.2,12.1
			c-30,3.5-60.3-4.4-90.5-3c-15.9,0.7-31.6,4.1-47.4,6.3c-47.1,6.6-94.8,3.4-142.3-1.3c1.3,16.4,6.7,32.5,16.1,46.1
			c11.1,16.1,27.2,29,34.4,47.2c8.7,22.3,2,47.3,3.2,71.1c1.6,30.9,18.3,61.8,45.9,75.8c27.7,14,61.1,9.6,91.1,1.6
			s59.9-19.5,90.9-18.6c52.9,1.5,100.9,38.6,153.8,35.6c49-2.9,91.1-39.9,140.1-42.6C-41.9,359.4,12,399.6,64.3,383.3z"/>
	</g>
	<g class="st1">
		<path class="st3" d="M35.1,105.6c-1.7-1.5-7-6.8-0.9-13.3c0.8-0.7,1.6-1.5,2.3-2.3c3.4-3.6,5.2-7.6,6.3-10.9
			c0-0.1,0.1-0.2,0.1-0.3c0.1-0.3,0.2-0.7,0.3-1c0-0.2,0.1-0.3,0.1-0.5c0.1-0.4,0.2-0.7,0.2-1c0-0.1,0-0.2,0.1-0.3
			c0.5-2.3,0.5-3.9,0.5-4c0-0.6,0.1-1.3,0.1-1.9c0-16.5-13.3-29.8-29.8-29.8S-15.4,53.6-15.4,70c0,0.6,0,1.3,0.1,1.9l-0.1,0
			c0,0,0.2,11.4,9,19.4c8.8,8-0.4,14.6-0.4,14.6l0,0c-8.9,6.5-14.7,17.1-14.7,28.9c0,19.8,16.1,35.9,35.9,35.9s35.9-16.1,35.9-35.9
			C50.3,122.8,44.3,112.1,35.1,105.6z"/>
		<path class="st3" d="M14.4,40.3C-2,40.3-15.4,53.6-15.4,70c0,0.6,0,1.3,0.1,1.9l-0.1,0c0,0,0.2,11.4,9,19.4
			c8.8,8-0.4,14.6-0.4,14.6l0,0c-8.9,6.5-14.7,17.1-14.7,28.9c0,19.8,16.1,35.9,35.9,35.9"/>
		<line class="st8" x1="14.4" y1="224.2" x2="14.4" y2="66"/>
		<line class="st8" x1="-8.4" y1="128" x2="14.4" y2="150.8"/>
		<line class="st8" x1="14.4" y1="85.8" x2="26.1" y2="74.2"/>
		<line class="st8" x1="14.4" y1="125.7" x2="27.6" y2="112.5"/>
		<g>
			<path class="st9" d="M-9.3,66.7c0,0,4.1-13.7,21.2-18.7"/>
			<line class="st9" x1="15.8" y1="46.8" x2="15.8" y2="46.8"/>
		</g>
		<path class="st5" d="M44.8,115.9c-0.7,12-5.9,41-37.6,54.2c2.3,0.5,4.7,0.7,7.2,0.7c19.8,0,35.9-16.1,35.9-35.9
			C50.3,127.9,48.3,121.4,44.8,115.9z"/>
		<g>
			<path class="st5" d="M36.8,89.7c3.2-3.5,5-7.4,6-10.6c0-0.1,0.1-0.2,0.1-0.3c0.1-0.3,0.2-0.7,0.3-1c0-0.2,0.1-0.3,0.1-0.5
				c0.1-0.4,0.2-0.7,0.2-1c0-0.1,0-0.2,0.1-0.3c0.5-2.3,0.5-3.9,0.5-4c0-0.6,0.1-1.3,0.1-1.9c0-5.1-1.3-9.9-3.5-14.1
				C40.7,56.2,39.8,77.1,36.8,89.7z"/>
			<path class="st5" d="M31.6,100.5c0,0.1,0,0.1,0,0.1C31.6,100.6,31.6,100.6,31.6,100.5z"/>
		</g>
	</g>
	<g class="st1">
		<path class="st10" d="M297.1,223.9C223.4,247,141.6,266.1,71,235c-11.4-5-22.2-11.3-34.1-15c-56.3-17.6-114.5,25.8-173.4,22.6
			c-52.8-2.9-98.1-42.8-150.9-45.9c-56.9-3.3-108.7,36.7-165.7,38.3c-33.5,0.9-65.6-11.4-98-20.1c-28.9-7.8-60.7-12.4-88.5-2.4
			c7.2,8.3,14,16.9,17.9,27c8.7,22.3,2,47.3,3.2,71.1c1.6,30.9,18.3,61.8,45.9,75.8c27.7,14,61.1,9.6,91.1,1.6
			c30-8.1,59.9-19.5,90.9-18.6c52.9,1.5,100.9,38.6,153.8,35.6c49-2.9,91.1-39.9,140.1-42.6c54.7-3,108.6,37.2,160.9,20.9
			c11-3.4,21.1-9.2,31.7-13.9c65.6-28.9,141.5-11.2,209.9,10.3c37.7,11.8,76.7,24.5,113.1,9.3V213.9
			C379.7,197.5,337.7,211.2,297.1,223.9z"/>
	</g>
	<g class="st1">
		<path class="st3" d="M270.9,270.9L270.9,270.9c-32.4,0-58.7-26.3-58.7-58.7V105.8c0-32.4,26.3-58.7,58.7-58.7h0
			c32.4,0,58.7,26.3,58.7,58.7v106.4C329.7,244.6,303.4,270.9,270.9,270.9z"/>
		<path class="st3" d="M270.9,270.9L270.9,270.9c-32.4,0-58.7-26.3-58.7-58.7V105.8c0-32.4,26.3-58.7,58.7-58.7h0"/>
		<line class="st11" x1="270.9" y1="369.3" x2="270.9" y2="104.1"/>
		<line class="st11" x1="270.9" y1="227.3" x2="309.3" y2="188.9"/>
		<line class="st11" x1="236.5" y1="128.9" x2="269.6" y2="161.9"/>
		<g>
			<path class="st12" d="M226.7,93.4c0,0,7.2-24.2,37.4-32.9"/>
			<line class="st12" x1="270.9" y1="58.4" x2="270.9" y2="58.4"/>
		</g>
		<path class="st5" d="M329.7,212.1v-15.6c-7.9,17.1-31.1,58.2-76.3,71.6c5.6,1.7,11.5,2.7,17.6,2.7
			C303.4,270.9,329.7,244.6,329.7,212.1z"/>
	</g>
</g>
<g id="Design">
	<g>
		<path class="st2" d="M448.9,165.7c0.4-12.7,2.3-25.4,1.6-38.1c-0.5-9.8-2.5-19.5-5-29c-8.8-33.3-27.3-68.1-60.1-78.9
			c-21-7-43.8-2.8-65.7,0.6c-5.7,0.9-11.5,1.7-17.3,2c-36.1,1.8-71.5-16.3-107.4-12c-26,3.1-49.5,17.8-75.5,21.3
			c-15.1,2.1-30.8,0.3-45.4,4.5c-12.6,3.6-23.3,27.6-24.6,43.8c-0.6,7.2-1.8,14.3-3.7,21.3l-3.1,11.1c-1.9,7-4.5,13.9-7.7,20.5
			c-6.6,13.5-14,26.7-19.3,40.8c-6.4,17.2-9.6,35.7-9.3,54c0.4,24.8,7.4,49.8,22,69.9s37.1,34.7,61.8,37.6
			c17.8,2.1,35.7-1.9,53.4-4.7c34.6-5.5,69.9-6.5,104.7-3.1c10.6,1,21.5,2.5,31.9,0c6.5-1.6,12.5-4.6,18.7-7
			c22.6-8.8,47.5-9.1,71.5-12.6c24-3.5,49.2-11.2,64.3-30.2c11.9-15,15.7-35,16-54.2C451.1,204,448.3,184.9,448.9,165.7z"/>
	</g>
	<g>
		<g>
			<g>
				<path class="st3" d="M62.8,301.3c-2.2-0.7-4.8,0.3-6.1,2.3c-0.3-2.3-0.6-4.6-1.6-6.7c-1-2.1-2.9-3.9-5.2-4.2
					c-2.8-0.4-5.6,1.6-6.8,4.2c-1.3,2.6-1.4,5.5-1.2,8.4c0.3,6.8,1.6,13.6,3.9,20c-1.4-1-3.2-1.6-5-1.6c-1,0-2,0.2-2.9,0.8
					c-1.4,1-1.8,3.1-1.3,4.8c0,0-0.2,3.9,15.1,22l8.4-12c5.2-6.8,3.7-9.3,1.9-11.2c-1.1-1.2-3-1.8-4.6-1.4c-0.2,0-0.4,0.1-0.5,0.2
					c0.3-1,0.7-1.9,1.2-2.9c1.4-2.6,3.5-4.8,5.3-7.2c1.8-2.4,3.4-5.1,3.6-8.1C67.3,305.5,65.7,302.2,62.8,301.3z"/>
			</g>
			<line class="st13" x1="51.8" y1="308.1" x2="51.8" y2="355.8"/>
		</g>
		<line class="st13" x1="44.3" y1="331.1" x2="51.8" y2="340.4"/>
		<line class="st13" x1="47.3" y1="314.7" x2="51.8" y2="321.9"/>
		<line class="st13" x1="51.8" y1="315.5" x2="56.6" y2="308.6"/>
	</g>
	<path class="st14" d="M167.2,206.3c0,0-11.7,1.6-11.8,7.7c0,0,0.5,2.9,2.7,0.9s2.9-2,2.9-2s-4.1,2.5-3.7,4.5c0.4,2,3.7-1.6,6.3-3.3
		c0,0-5.3,3.8-2.9,6.1c2.1,2,5.1-4.9,5.1-4.9s-2.9,5.5,0.7,4.4c3.6-1.1,5.5-5.9,5.5-5.9L167.2,206.3z"/>
	<path class="st15" d="M168.9,216.6l-4.6-10.9c0,0,36.5-13.5,38.5-16.9c2-3.4-5-58.8,18.1-61.7c15.7-2,2.4,66.3,2.4,66.3
		S212.5,201.8,168.9,216.6z"/>
	<circle class="st16" cx="133.8" cy="216.9" r="11.2"/>
	<path class="st17" d="M153,222.6c0,0,8.4-14.9,14.3-5.1c6,9.8-5.5,26.7-5.5,26.7"/>
	
		<rect x="94.9" y="247.4" transform="matrix(0.9956 9.339794e-02 -9.339794e-02 0.9956 23.9172 -9.3826)" class="st18" width="34.5" height="6.9"/>
	<path class="st18" d="M94.5,239.7c3.4,0.3,5.8,4.7,5.3,9.8c-0.4,5.1-3.5,9-6.9,8.8"/>
	<path class="st14" d="M176.4,215.2c0,0-13.7-1-15.4,5.9c0,0-0.1,3.5,2.8,1.6c2.9-1.8,3.8-1.6,3.8-1.6s-5.3,1.9-5.3,4.3
		c0,2.4,4.7-0.9,8-2.3c0,0-7,3-4.8,6.3c1.9,2.8,7.1-4.3,7.1-4.3s-4.7,5.6-0.3,5.2c4.4-0.4,7.8-5.4,7.8-5.4L176.4,215.2z"/>
	<path class="st19" d="M231.1,345.9h11.3c1.7,0,3.1-1.4,2.9-3.1l-3.9-94.2c0-0.4,0.5-0.4,0.6-0.1l19.1,95c0.3,1.4,1.5,2.4,3,2.4H276
		c2,0,3.6-1.8,3.3-3.8L264.2,221c0-0.1-0.1-0.3-0.3-0.3l-49.2-1.3c-0.2,0-0.3,0.2-0.3,0.3L227.9,343
		C228.1,344.7,229.5,345.9,231.1,345.9z"/>
	<g>
		<polygon class="st14" points="375.8,350.7 379.9,353.6 391.6,353.9 388.6,344.4 377.4,345.9 		"/>
		<path class="st19" d="M376.1,349.8c0,0,5.9,3.5,15.8,3.5l2.1,6.1h-35.8c0,0-1.7-7,6.8-6.6S376.1,349.8,376.1,349.8z"/>
		
			<rect x="358.2" y="359.4" transform="matrix(-1 -3.838453e-11 3.838453e-11 -1 752.2541 720.2242)" class="st20" width="35.8" height="1.4"/>
	</g>
	<g>
		<polygon class="st14" points="330.1,350.7 334.2,353.6 345.8,353.9 343.1,345.9 331.7,345.9 		"/>
		<path class="st19" d="M330.4,349.8c0,0,5.9,3.5,15.8,3.5l1.7,6.1h-35.4c0,0-1.7-7,6.8-6.6S330.4,349.8,330.4,349.8z"/>
		
			<rect x="312.5" y="359.4" transform="matrix(-1 -3.879620e-11 3.879620e-11 -1 660.4417 720.2242)" class="st20" width="35.4" height="1.4"/>
	</g>
	<path class="st20" d="M392.7,338l-18-116.8c0-0.1-0.1-0.2-0.2-0.2l-24.2-1.2c-0.1,0-0.2-0.1-0.2-0.2v-2.7c0-0.1-0.1-0.2-0.2-0.2
		l-28.8,6.5c-0.1,0-0.2,0.1-0.1,0.2l7,116.6c0.2,3.4,2.9,6,6.1,6h8.4c3.3,0,6-2.8,6.1-6.3l1.7-94.6c0-0.2,0.3-0.3,0.4,0l20.3,96.9
		c1.1,3.3,3.9,4,7.6,4l10.1-0.3c0,0,0,0,0.1,0C391.8,344.6,393.5,341.2,392.7,338z"/>
	<path class="st21" d="M337,226.8c0,0,2.8,12.6-12.5,13.3"/>
	<path class="st21" d="M362.9,226.2c0,0-2.8,12.6,12.5,13.3"/>
	<rect x="223.4" y="105" class="st22" width="15.7" height="24.3"/>
	<path class="st15" d="M348.4,39.8c-11.3-0.4-39.8,3.4-35.7,53c5.1,61.7,12.2,46.4,12.2,46.4l23.5-1.3l23.5,1.3
		c0,0,7.1,15.3,12.2-46.4C388.1,43.2,359.7,39.4,348.4,39.8z"/>
	<g>
		<path class="st14" d="M206,89.9c0,0-7.8-6.6-4.4-12.1c2.1-3.3,3.2,0.1,3.2,0.1L206,89.9z"/>
		<path class="st14" d="M256.5,89.9c0,0,7.8-6.6,4.4-12.1c-2.1-3.3-3.2,0.1-3.2,0.1L256.5,89.9z"/>
	</g>
	<g>
		<polygon class="st14" points="263.4,350.7 267.5,353.6 279.2,353.9 276.4,345.9 265,345.9 		"/>
		<path class="st18" d="M263.7,349.8c0,0,5.9,3.5,15.8,3.5v6.1h-33.6c0,0-1.7-7,6.8-6.6C261.2,353.3,263.7,349.8,263.7,349.8z"/>
		
			<rect x="245.8" y="359.4" transform="matrix(-1 -4.079282e-11 4.079282e-11 -1 525.3333 720.2242)" class="st23" width="33.6" height="1.4"/>
	</g>
	<polygon class="st14" points="230.5,350.7 234.6,353.6 243.1,353.9 242.7,345.9 232,345.9 	"/>
	<path class="st18" d="M230.8,349.8c0,0,2.8,3.5,12.7,3.5v6.1h-30.5c0,0-1.7-7,6.8-6.6C228.2,353.3,230.8,349.8,230.8,349.8z"/>
	
		<rect x="216.2" y="368.2" transform="matrix(-1 -4.496149e-11 4.496149e-11 -1 462.9795 737.8705)" class="st23" width="30.5" height="1.4"/>
	<g>
		<path class="st18" d="M349.3,122.1c-0.3,0-0.6,0-1,0v0c0,0,0,0-0.1,0c0,0,0,0-0.1,0v0c-0.3,0-0.6,0-1,0c-0.4,0-0.7,0-1.1,0l0,0.1
			c-28.8,1.4-34.2,12-34.2,12l7.8,8.8c0,0-2.7,20.8-2.1,36c0.8,20.1,1.6,44.1,1.6,44.1h26.7h2h0.3"/>
		<path class="st18" d="M347,122.1c0.3,0,0.6,0,1,0v0c0,0,0,0,0.1,0c0,0,0,0,0.1,0v0c0.3,0,0.6,0,1,0c0.4,0,0.7,0,1.1,0l0,0.1
			c28.8,1.4,34.2,12,34.2,12l-7.8,8.8c0,0,2.7,20.8,2.1,36c-0.8,20.1-1.6,44.1-1.6,44.1h-26.7h-2h-0.3"/>
	</g>
	<path class="st22" d="M354.5,122.5v-15.1h-12.3v15.1c-6.1,0.5-11,1.5-15,2.6c0.5,13.2,9.7,13.4,21.1,13.4
		c11.4,0,20.7-0.2,21.1-13.4C365.5,123.9,360.6,123,354.5,122.5z"/>
	<g>
		<circle class="st14" cx="322" cy="85" r="5.9"/>
		<circle class="st14" cx="374.7" cy="85" r="5.9"/>
	</g>
	<g>
		<ellipse class="st14" cx="348.4" cy="81.1" rx="27.5" ry="33.2"/>
		<path class="st25" d="M349.6,75c0,0-0.6,11.4-2.1,13.3s-3,7.2,3.2,7.2"/>
	</g>
	<path class="st26" d="M340.7,99.3c0,0,8,8.4,15.4,0"/>
	<g>
		<path class="st25" d="M353.9,71.1c0,0,6.1-5.8,12.3,1"/>
		<path class="st25" d="M342.9,71.1c0,0-6.1-5.8-12.3,1"/>
	</g>
	<path class="st15" d="M348,44.8c-32.1,0-27.1,34.4-27.1,34.4s1.3-14.9,14.6-14.9c10.7,0,18.5-4.9,22.5-7.2c4.7,2.5,17,11.4,17,21.8
		l4.4-0.1C379.5,78.8,378.2,44.8,348,44.8z"/>
	<g>
		<g>
			<g>
				<path class="st3" d="M359.6,132.7c-2.3-0.7-4.9,0.3-6.2,2.3c-0.3-2.3-0.6-4.7-1.7-6.8c-1-2.1-2.9-3.9-5.3-4.3
					c-2.9-0.4-5.7,1.7-7,4.3c-1.3,2.6-1.4,5.6-1.3,8.5c0.3,7,1.6,13.9,4,20.4c-1.5-1-3.3-1.6-5.1-1.7c-1,0-2.1,0.2-2.9,0.8
					c-1.5,1-1.8,3.1-1.3,4.9c0,0-0.2,3.9,15.4,22.5l8.6-12.3c5.3-7,3.8-9.5,1.9-11.5c-1.2-1.3-3-1.8-4.7-1.5c-0.2,0-0.4,0.1-0.6,0.2
					c0.3-1,0.8-2,1.3-2.9c1.5-2.7,3.6-4.9,5.4-7.4c1.9-2.4,3.5-5.2,3.7-8.3C364.1,136.9,362.5,133.6,359.6,132.7z"/>
			</g>
			<line class="st27" x1="348.3" y1="139.7" x2="348.3" y2="188.4"/>
		</g>
		<line class="st27" x1="340.6" y1="163.1" x2="348.3" y2="172.6"/>
		<line class="st27" x1="343.7" y1="146.4" x2="348.3" y2="153.7"/>
		<line class="st27" x1="348.3" y1="147.1" x2="353.2" y2="140.1"/>
	</g>
	<g>
		<path class="st14" d="M258.7,76.6c0,17.8-12.3,36.4-27.5,36.4s-27.5-18.6-27.5-36.4s12.3-32.2,27.5-32.2S258.7,58.9,258.7,76.6z"
			/>
		<path class="st28" d="M232.6,71.8c0,0-0.2,8.9-1.3,11.1c-1.3,2.6-8,8.7,0.3,8.7"/>
	</g>
	<g>
		<path class="st25" d="M236.7,68.7c0,0,6.1-5.8,12.3,1"/>
		<path class="st25" d="M225.7,68.7c0,0-6.1-5.8-12.3,1"/>
	</g>
	<line class="st29" x1="227.7" y1="76.6" x2="234.7" y2="76.6"/>
	<g>
		<g>
			<line class="st30" x1="204.1" y1="76.5" x2="212.5" y2="76.5"/>
			<line class="st29" x1="204.1" y1="76.5" x2="212.5" y2="76.5"/>
		</g>
		<g>
			<line class="st30" x1="249.9" y1="76.5" x2="258.3" y2="76.5"/>
			<line class="st29" x1="249.9" y1="76.5" x2="258.3" y2="76.5"/>
		</g>
	</g>
	<g>
		<path class="st31" d="M227.6,79.6c0,4.7-3.4,7.7-7.5,7.7s-7.5-3-7.5-7.7s3.4-7.8,7.5-7.8S227.6,75,227.6,79.6z"/>
		<path class="st31" d="M249.8,79.6c0,4.7-3.4,7.7-7.5,7.7s-7.5-3-7.5-7.7s3.4-7.8,7.5-7.8S249.8,75,249.8,79.6z"/>
	</g>
	<path class="st32" d="M231.2,94c-8.4,0-8.7,6-8.7,6s0.6,1.8,1.6,0.1c1.6-2.6,5-2.5,6.7-2.8c0.3,0,0.5,0,0.8,0
		c1.7,0.3,5.2,0.2,6.7,2.8c1,1.7,1.6-0.1,1.6-0.1S239.6,94,231.2,94z"/>
	<path class="st32" d="M231.2,103.9h-2.7c0,0,0.2,3,2.7,3c2.5,0,2.7-3,2.7-3H231.2z"/>
	<path class="st32" d="M231.2,109.4c-18.8-0.1-25.5-21.2-25.5-21.2c1.3,24.2,22.7,25.4,25.3,25.5h0.3c2.7-0.1,24.1-1.3,25.5-25.5
		C256.8,88.3,250,109.3,231.2,109.4z"/>
	<path class="st33" d="M234.7,99.4c0,1-1.6,2.8-3.5,2.8s-3.5-1.8-3.5-2.8"/>
	<g>
		<path class="st32" d="M250,49.7c-0.4-0.4-0.5-1.2-1.1-1.2c-0.2,0-0.4,0.1-0.6,0.1c-0.7-0.1-0.5-1.3-0.9-1.9
			c-0.7-0.9-2.2,0.2-3.1-0.4c-0.9-0.7-0.4-2.6-1.5-3c-0.7-0.2-1.6,0.6-2.3,0.3c-0.5-0.2-0.7-1-1.2-1.3c-0.7-0.4-1.7,0.3-2.4,0
			c-0.4-0.2-0.6-0.6-0.9-0.9c-0.5-0.4-1.2-0.5-1.8-0.5c-1-0.1-1.9-0.1-2.9-0.2v0c0,0,0,0,0,0c0,0,0,0,0,0v0c-1,0.1-1.9,0.1-2.9,0.2
			c-0.6,0-1.3,0.1-1.8,0.5c-0.3,0.3-0.5,0.7-0.9,0.9c-0.8,0.4-1.7-0.4-2.4,0c-0.5,0.3-0.6,1-1.2,1.3c-0.7,0.3-1.5-0.6-2.3-0.3
			c-1.1,0.4-0.6,2.4-1.5,3c-0.9,0.6-2.4-0.5-3.1,0.4c-0.4,0.6-0.2,1.8-0.9,1.9c-0.2,0-0.4-0.1-0.6-0.1c-0.6,0-0.7,0.8-1.1,1.2
			c-4.3,4.3-7,12.8-7.6,17h3.1c7.9-22.3,21.9-13.6,23.2-13h0.1c1.2-0.6,15.3-9.3,23.2,13h3.1C257,62.6,254.3,54,250,49.7z"/>
	</g>
	<g>
		<g>
			<circle class="st32" cx="205.6" cy="68" r="0.4"/>
			<circle class="st32" cx="206.8" cy="68" r="0.4"/>
			<circle class="st32" cx="208.1" cy="68" r="0.4"/>
			<circle class="st32" cx="205.3" cy="69.2" r="0.4"/>
			<circle class="st32" cx="206.5" cy="69.2" r="0.4"/>
			<circle class="st32" cx="205.1" cy="70.5" r="0.4"/>
			<circle class="st32" cx="206.4" cy="70.5" r="0.4"/>
			<circle class="st32" cx="204.9" cy="71.8" r="0.4"/>
		</g>
		<g>
			<circle class="st32" cx="256.8" cy="68" r="0.4"/>
			<circle class="st32" cx="255.6" cy="68" r="0.4"/>
			<circle class="st32" cx="254.3" cy="68" r="0.4"/>
			<circle class="st32" cx="257.2" cy="69.2" r="0.4"/>
			<circle class="st32" cx="255.9" cy="69.2" r="0.4"/>
			<circle class="st32" cx="257.3" cy="70.5" r="0.4"/>
			<circle class="st32" cx="256.1" cy="70.5" r="0.4"/>
			<circle class="st32" cx="257.5" cy="71.8" r="0.4"/>
		</g>
	</g>
	<path class="st15" d="M237.6,121.1c0,0-22.1,4-25.1,16.1c-3,12.2-6.2,61.9,1.8,89.8l50.9-2.2C265.3,224.9,274.4,124.2,237.6,121.1z
		"/>
	<path class="st34" d="M173.4,214.9c0,0,49.4-19.1,51.3-22.4s-2-53.8,13.3-55.5s3.4,63,3.4,63s-2.5,3.4-19.9,10.2
		c-22.2,8.7-44.2,16.9-44.2,16.9L173.4,214.9z"/>
	<path class="st35" d="M214.4,144.7c0,0-5.1,38.9-3.7,54.7"/>
	<path class="st22" d="M219.4,127.3c0,0,1.2,3.4,9.1,3.4s13.6-8.6,13.6-8.6l-5.4-1.9L219.4,127.3z"/>
	<g>
		<path class="st19" d="M361.7,187.5v18c0,4.2-2.3,5.5-5.2,5.5h-16.5c-2.8,0-5.2-1.3-5.2-5.5v-18"/>
	</g>
	<g>
		<path class="st14" d="M331,192.2l-3.8,10.3c17.2,5.1,16.6,3.3,16.9,1.7c0.1-0.9-7-1.9-7-1.9c4.5,0.3,8.5,1.9,8.7-0.3
			c0.2-1.7-8.8-2.9-8.8-2.9s0,0,1.2,0.1c1.2,0.1,7.5,1.7,7.9-0.4c0.4-2.2-8-2.6-8-2.6c4.3,0.4,8.7,0.9,8.4-1.1
			c-0.2-1.8-8.3-2.5-8.3-2.5L331,192.2z"/>
		<path class="st14" d="M365.6,192.2l3.8,10.3c-17.2,5.1-16.6,3.3-16.9,1.7c-0.1-0.9,7-1.9,7-1.9c-4.5,0.3-8.5,1.9-8.7-0.3
			c-0.2-1.7,8.8-2.9,8.8-2.9s0,0-1.2,0.1c-1.2,0.1-7.5,1.7-7.9-0.4c-0.4-2.2,8-2.6,8-2.6c-4.3,0.4-8.7,0.9-8.4-1.1
			c0.2-1.8,8.3-2.5,8.3-2.5L365.6,192.2z"/>
	</g>
	<g class="st37">
		<g>
			<circle class="st15" cx="332.4" cy="93" r="0.7"/>
			<circle class="st15" cx="329.8" cy="97.9" r="0.7"/>
			<circle class="st15" cx="333.1" cy="96.6" r="0.7"/>
			<circle class="st15" cx="336.4" cy="94.7" r="0.7"/>
			<circle class="st15" cx="329.3" cy="94.5" r="0.7"/>
		</g>
		<g>
			<circle class="st15" cx="364.3" cy="93" r="0.7"/>
			<circle class="st15" cx="367" cy="97.9" r="0.7"/>
			<circle class="st15" cx="363.6" cy="96.6" r="0.7"/>
			<circle class="st15" cx="360.4" cy="94.7" r="0.7"/>
			<circle class="st15" cx="367.4" cy="94.5" r="0.7"/>
		</g>
	</g>
	<g>
		<g>
			<circle class="st38" cx="337.4" cy="82" r="8.2"/>
			<circle class="st38" cx="359.7" cy="82" r="8.2"/>
		</g>
		<line class="st38" x1="345.1" y1="79" x2="352" y2="79"/>
		<g>
			<line class="st39" x1="367.5" y1="78.9" x2="375.6" y2="78.9"/>
			<line class="st39" x1="321.2" y1="78.9" x2="329.6" y2="78.9"/>
		</g>
	</g>
	<g>
		<circle class="st19" cx="337.3" cy="82.3" r="2"/>
		<circle class="st19" cx="359.6" cy="82.3" r="2"/>
	</g>
	<g>
		<circle class="st19" cx="220" cy="79.5" r="2"/>
		<circle class="st19" cx="242.4" cy="79.5" r="2"/>
	</g>
	<path class="st40" d="M329.1,61.7c0,0,21.2,2.2,28.2-10.3C357.3,51.4,346,59.6,329.1,61.7z"/>
	<g>
		<path class="st6" d="M324.7,54.5c0,0,7.3-10.3,22.6-10.3"/>
		<line class="st6" x1="349.2" y1="44.2" x2="349.5" y2="44.2"/>
	</g>
	<g>
		<path class="st6" d="M213.5,52.9c0,0,6.7-5.6,12.6-6.2"/>
		<line class="st6" x1="227.8" y1="46.6" x2="228.5" y2="46.5"/>
	</g>
	<path class="st43" d="M224.1,228.5c0,0,4.5,14.1-4.7,15.5"/>
	<path class="st43" d="M256.3,227.1c0,0-4.8,16.3,8.7,16"/>
	<path class="st40" d="M252.8,225.4l12.4-0.5c0,0,6.8-75-15-97.5C254.2,144.2,265.4,197.8,252.8,225.4z"/>
	<path class="st23" d="M360.7,223.2h16.3c0,0,0.9-24,1.6-44.1c0.2-4.3,0.1-8.9-0.1-13.5C377.8,176.6,374.9,208.7,360.7,223.2z"/>
	<g>
		<path class="st18" d="M150.4,214c-0.8-1.4-2.5-2-4-1.5l-9.3,3.3l-6.7,2.4l-9.3,3.3c-1.5,0.5-2.4,2.1-2.1,3.7l6.2,35.3
			c0.4,2,2.4,3.2,4.3,2.5l14.8-5.2l6.7-2.4L166,250c1.9-0.7,2.8-2.9,1.8-4.7L150.4,214z"/>
		<path class="st23" d="M154.5,254.1L166,250c1.9-0.7,2.8-2.9,1.8-4.7L150.4,214c-0.2-0.4-0.5-0.7-0.8-0.9
			C152.3,222.7,157.3,243.2,154.5,254.1z"/>
	</g>
	<path class="st44" d="M122,229.4l-0.5-2.9c-0.2-1.2,0.3-2.5,1.3-3.1c0.5-0.3,1.1-0.6,2-0.8"/>
	<line class="st44" x1="125.9" y1="222.2" x2="126" y2="222.1"/>
	<g>
		<g>
			<path class="st45" d="M48.1,287.6c0,0,0-0.9,0.1-2.5"/>
			<path class="st46" d="M48.8,280.4c2.1-10.9,9.7-30.7,37.5-33.2"/>
			<path class="st45" d="M88.6,247c0.8,0,1.6-0.1,2.5-0.1"/>
		</g>
	</g>
	<g>
		<g>
			<path class="st45" d="M53.3,287.6c0,0,0-0.9,0.2-2.5"/>
			<path class="st47" d="M54.3,280.2c2.2-9.9,9.3-26.8,31.8-31"/>
			<path class="st45" d="M88.6,248.7c0.8-0.1,1.6-0.2,2.5-0.3"/>
		</g>
	</g>
	<g>
		<g>
			<path class="st45" d="M58.5,292.7c0,0,0-0.9,0.2-2.5"/>
			<path class="st48" d="M59.3,285.4c1.9-10.5,7.9-29.3,27-34.2"/>
			<path class="st45" d="M88.7,250.6c0.8-0.1,1.6-0.3,2.5-0.4"/>
		</g>
	</g>
	<g>
		<path class="st18" d="M326,125.4l-3.4,13.4l-2.2,9.7c-21,37.9,16.9,43.5,16.9,43.5l-3.2,12.9c-56.7-13.7-22-70.7-22-70.7"/>
		<path class="st18" d="M384.6,134.2c0,0,34.7,56.9-22,70.7l-3.2-12.9c0,0,37.9-5.6,16.9-43.5l-2.2-9.7l-3.4-13.4"/>
	</g>
	<path class="st49" d="M318.5,199.1c0,0,8.7,6.5,15.5,5.8l3.2-12.9c0,0-7.4-0.2-19.4-10.9"/>
	<path class="st49" d="M377.9,199.3c0,0-8.1,6.3-14.9,5.6l-3.2-12.9c0,0,6.8,0,18.8-10.7"/>
</g>
</svg>
