<?xml version="1.0" encoding="utf-8"?>
<!-- Generator: Adobe Illustrator 23.0.6, SVG Export Plug-In . SVG Version: 6.00 Build 0)  -->
<svg version="1.1" xmlns="http://www.w3.org/2000/svg" xmlns:xlink="http://www.w3.org/1999/xlink" x="0px" y="0px"
	 viewBox="0 0 653.8 424.1" style="enable-background:new 0 0 653.8 424.1;" xml:space="preserve">
<style type="text/css">
	.st0{fill:#E3FFFF;}
	.st1{display:none;}
	.st2{display:inline;}
	.st3{fill:#33CC99;}
	.st4{fill:none;stroke:#3EA88C;stroke-width:0.7868;stroke-linecap:round;stroke-miterlimit:10;}
	.st5{opacity:0.48;fill:#3EA88C;}
	.st6{fill:none;stroke:#FFFFFF;stroke-linecap:round;stroke-miterlimit:10;}
	.st7{fill:#96F7BB;}
	.st8{fill:none;stroke:#3EA88C;stroke-width:1.5843;stroke-linecap:round;stroke-miterlimit:10;}
	.st9{fill:none;stroke:#FFFFFF;stroke-width:2.1124;stroke-linecap:round;stroke-miterlimit:10;}
	.st10{fill:#CCFFCF;}
	.st11{fill:none;stroke:#3EA88C;stroke-width:2.5741;stroke-linecap:round;stroke-miterlimit:10;}
	.st12{fill:none;stroke:#FFFFFF;stroke-width:3.4322;stroke-linecap:round;stroke-miterlimit:10;}
	.st13{fill:#3EA88C;}
	.st14{fill:#F39698;}
	.st15{fill:#6666FF;}
	.st16{fill:none;stroke:#3EA88C;stroke-width:0.7668;stroke-linecap:round;stroke-miterlimit:10;}
	.st17{fill:#F8B0A7;}
	.st18{fill:#E92175;}
	.st19{fill:none;stroke:#6666FF;stroke-width:3.8512;stroke-miterlimit:10;}
	.st20{fill:none;stroke:#4A54CB;stroke-width:3.8512;stroke-miterlimit:10;}
	.st21{fill:#333333;}
	.st22{fill:#CC7A66;}
	.st23{fill:none;stroke:#F39698;stroke-width:1.3172;stroke-linecap:round;stroke-miterlimit:10;}
	.st24{fill:#4A54CB;}
	.st25{fill:#DDAE8E;}
	.st26{fill:none;stroke:#D78181;stroke-width:1.1263;stroke-linecap:round;stroke-miterlimit:10;}
	.st27{fill:none;stroke:#E92175;stroke-width:1.1263;stroke-linecap:round;stroke-miterlimit:10;}
	.st28{fill:none;stroke:#3EA88C;stroke-width:0.7831;stroke-linecap:round;stroke-miterlimit:10;}
	.st29{fill:none;stroke:#D78181;stroke-width:1.1361;stroke-linecap:round;stroke-miterlimit:10;}
	.st30{fill:none;stroke:#FFFFFF;stroke-width:1.191;stroke-linecap:round;stroke-miterlimit:10;}
	.st31{fill:none;stroke:#3EA88C;stroke-width:1.191;stroke-linecap:round;stroke-miterlimit:10;}
	.st32{fill:none;stroke:#FFFFFF;stroke-width:1.191;stroke-miterlimit:10;}
	.st33{fill:#5A5A5A;}
	.st34{fill:none;stroke:#E92175;stroke-width:0.7964;stroke-linecap:round;stroke-miterlimit:10;}
	.st35{fill:#E92175;stroke:#CF2169;stroke-width:0.8556;stroke-linecap:round;stroke-miterlimit:10;}
	.st36{fill:none;stroke:#CF2169;stroke-width:0.8556;stroke-linecap:round;stroke-miterlimit:10;}
	.st37{opacity:0.6;}
	.st38{fill:none;stroke:#FFFFFF;stroke-width:1.2164;stroke-miterlimit:10;}
	.st39{fill:none;stroke:#FFFFFF;stroke-width:1.2164;stroke-linecap:round;stroke-miterlimit:10;}
	.st40{fill:#CF2169;}
	.st41{fill:none;stroke:#FFFFFF;stroke-width:0.6883;stroke-linecap:round;stroke-miterlimit:10;}
	.st42{fill:none;stroke:#FFFFFF;stroke-width:1.1771;stroke-linecap:round;stroke-miterlimit:10;}
	.st43{fill:none;stroke:#5A5A5A;stroke-width:1.3172;stroke-linecap:round;stroke-miterlimit:10;}
	.st44{fill:none;stroke:#FFFFFF;stroke-width:0.6586;stroke-linecap:round;stroke-miterlimit:10;}
	.st45{fill:none;stroke:#66C3FF;stroke-width:0.9929;stroke-linecap:round;stroke-linejoin:round;}
	.st46{fill:none;stroke:#66C3FF;stroke-width:0.9929;stroke-linecap:round;stroke-linejoin:round;stroke-dasharray:4.7143,4.7143;}
	.st47{fill:none;stroke:#66C3FF;stroke-width:0.9929;stroke-linecap:round;stroke-linejoin:round;stroke-dasharray:4.9786,4.9786;}
	.st48{fill:none;stroke:#66C3FF;stroke-width:0.9929;stroke-linecap:round;stroke-linejoin:round;stroke-dasharray:4.8595,4.8595;}
	.st49{fill:#6666FF;stroke:#4A54CB;stroke-width:0.5704;stroke-linecap:round;stroke-miterlimit:10;}
	.st50{fill:#B66E4D;}
	.st51{fill:#6C3220;}
	.st52{fill:#9D5F44;}
	.st53{fill:none;stroke:#924D2F;stroke-width:2.0021;stroke-linecap:round;stroke-miterlimit:10;}
	.st54{fill:none;stroke:#FFFFFF;stroke-width:1.7775;stroke-linecap:round;stroke-miterlimit:10;}
	.st55{fill:none;stroke:#5A5A5A;stroke-width:2.0021;stroke-linecap:round;stroke-miterlimit:10;}
	.st56{fill:none;stroke:#FFFFFF;stroke-width:2.1622;stroke-miterlimit:10;}
	.st57{fill:none;stroke:#FFFFFF;stroke-width:2.1622;stroke-linecap:round;stroke-miterlimit:10;}
	.st58{opacity:0.26;fill:#F8B0A7;}
	.st59{fill:#33CC99;stroke:#3EA88C;stroke-width:1.0139;stroke-linecap:round;stroke-miterlimit:10;}
	.st60{fill:none;stroke:#4A54CB;stroke-width:0.7132;stroke-linecap:round;stroke-miterlimit:10;}
	.st61{fill:none;stroke:#FFFFFF;stroke-width:1.2743;stroke-linecap:round;stroke-miterlimit:10;}
	.st62{fill:none;stroke:#CF2169;stroke-width:0.7132;stroke-linecap:round;stroke-miterlimit:10;}
	.st63{fill:#E92175;stroke:#CF2169;stroke-width:1.0143;stroke-linecap:round;stroke-miterlimit:10;}
	.st64{fill:none;stroke:#FFFFFF;stroke-width:0.9329;stroke-linecap:round;stroke-miterlimit:10;}
	.st65{fill:none;stroke:#D78181;stroke-width:1.9046;stroke-linecap:round;stroke-miterlimit:10;}
	.st66{fill:none;stroke:#D78181;stroke-width:1.8882;stroke-linecap:round;stroke-miterlimit:10;}
	.st67{fill:none;stroke:#FFFFFF;stroke-width:1.9965;stroke-linecap:round;stroke-miterlimit:10;}
	.st68{fill:none;stroke:#3EA88C;stroke-width:1.9965;stroke-linecap:round;stroke-miterlimit:10;}
	.st69{fill:none;stroke:#FFFFFF;stroke-width:1.9965;stroke-miterlimit:10;}
	.st70{fill:none;stroke:#E92175;stroke-width:1.3352;stroke-linecap:round;stroke-miterlimit:10;}
	.st71{fill:none;stroke:#D78181;stroke-width:1.9339;stroke-linecap:round;stroke-miterlimit:10;}
	.st72{fill:none;stroke:#E92175;stroke-width:1.9339;stroke-linecap:round;stroke-miterlimit:10;}
	.st73{fill:none;stroke:#3EA88C;stroke-width:1.3446;stroke-linecap:round;stroke-miterlimit:10;}
	.st74{fill:none;stroke:#FFFFFF;stroke-width:2.0886;stroke-miterlimit:10;}
	.st75{fill:none;stroke:#FFFFFF;stroke-width:2.0886;stroke-linecap:round;stroke-miterlimit:10;}
	.st76{fill:none;stroke:#FFFFFF;stroke-width:1.1818;stroke-linecap:round;stroke-miterlimit:10;}
	.st77{fill:none;stroke:#FFFFFF;stroke-width:2.021;stroke-linecap:round;stroke-miterlimit:10;}
	.st78{fill:#6666FF;stroke:#4A54CB;stroke-width:0.9793;stroke-linecap:round;stroke-miterlimit:10;}
</style>
<g id="BG">
</g>
<g id="Background" class="st1">
	<g class="st2">
		<path class="st0" d="M53.8,0.7c9.6,34.5-25.7,63.3-42,95.2c-15.5,30.3-13,69.1,6.3,97.2c11.1,16.1,27.2,29,34.4,47.2
			c8.7,22.3,2,47.3,3.2,71.1c1.6,30.9,18.3,61.8,45.9,75.8c27.7,14,61.1,9.6,91.1,1.6c30-8.1,59.9-19.5,90.9-18.6
			c52.9,1.5,100.9,38.6,153.8,35.6c49-2.9,91.1-39.9,140.1-42.6c54.7-3,108.6,37.2,160.9,20.9c11-3.4,21.1-9.2,31.7-13.9
			c65.6-28.9,141.5-11.2,209.9,10.3c37.7,11.8,76.7,24.5,113.1,9.3V0.7H53.8z"/>
	</g>
	<g class="st2">
		<path class="st0" d="M53.8,0.7c9.6,34.5-25.7,63.3-42,95.2c-15.5,30.3-13,69.1,6.3,97.2c11.1,16.1,27.2,29,34.4,47.2
			c8.7,22.3,2,47.3,3.2,71.1c1.6,30.9,18.3,61.8,45.9,75.8c27.7,14,61.1,9.6,91.1,1.6c30-8.1,59.9-19.5,90.9-18.6
			c52.9,1.5,100.9,38.6,153.8,35.6c49-2.9,91.1-39.9,140.1-42.6c54.7-3,108.6,37.2,160.9,20.9c11-3.4,21.1-9.2,31.7-13.9
			c65.6-28.9,141.5-11.2,209.9,10.3c37.7,11.8,76.7,24.5,113.1,9.3V0.7H53.8z"/>
	</g>
	<g class="st2">
		<path class="st3" d="M88.7,105c-0.7-0.6-2.9-2.8-0.4-5.5c0.3-0.3,0.7-0.6,1-0.9c1.4-1.5,2.2-3.1,2.6-4.5c0,0,0-0.1,0-0.1
			c0-0.1,0.1-0.3,0.1-0.4c0-0.1,0-0.1,0.1-0.2c0-0.1,0.1-0.3,0.1-0.4c0,0,0-0.1,0-0.1c0.2-1,0.2-1.6,0.2-1.6c0-0.3,0-0.5,0-0.8
			c0-6.8-5.5-12.3-12.3-12.3c-6.8,0-12.3,5.5-12.3,12.3c0,0.3,0,0.5,0,0.8l0,0c0,0,0.1,4.7,3.7,8c3.6,3.3-0.2,6-0.2,6l0,0
			c-3.7,2.7-6,7-6,11.9c0,8.2,6.6,14.8,14.8,14.8s14.8-6.6,14.8-14.8C94.9,112.1,92.5,107.7,88.7,105z"/>
		<path class="st3" d="M80.2,78.1c-6.8,0-12.3,5.5-12.3,12.3c0,0.3,0,0.5,0,0.8l0,0c0,0,0.1,4.7,3.7,8c3.6,3.3-0.2,6-0.2,6l0,0
			c-3.7,2.7-6,7-6,11.9c0,8.2,6.6,14.8,14.8,14.8"/>
		<line class="st4" x1="80.2" y1="153.9" x2="80.2" y2="88.7"/>
		<line class="st4" x1="70.8" y1="114.3" x2="80.2" y2="123.7"/>
		<line class="st4" x1="80.2" y1="96.9" x2="85" y2="92.1"/>
		<line class="st4" x1="80.2" y1="113.3" x2="85.6" y2="107.9"/>
		<g>
			<circle class="st3" cx="39.4" cy="117.2" r="20"/>
			<polyline class="st4" points="39.4,153.9 39.4,130.7 28,121.7 			"/>
			<line class="st4" x1="39.4" y1="132.2" x2="39.4" y2="106.2"/>
			<line class="st4" x1="39.4" y1="118.8" x2="48.1" y2="110.1"/>
			<path class="st5" d="M56.9,107.5c0,0.3,0.2,23-24.9,28.3c2.3,0.9,4.8,1.4,7.4,1.4c11,0,20-9,20-20
				C59.4,113.6,58.5,110.3,56.9,107.5z"/>
			<g>
				<path class="st6" d="M24.9,108c0,0,1.7-5.7,8.8-7.7"/>
				<line class="st6" x1="35.2" y1="99.8" x2="35.2" y2="99.8"/>
			</g>
		</g>
		<g>
			<path class="st6" d="M70.4,89c0,0,1.7-5.7,8.8-7.7"/>
			<line class="st6" x1="80.7" y1="80.8" x2="80.7" y2="80.8"/>
		</g>
		<path class="st5" d="M92.7,109.3c-0.3,4.9-2.4,16.9-15.5,22.3c1,0.2,1.9,0.3,3,0.3c8.2,0,14.8-6.6,14.8-14.8
			C94.9,114.2,94.1,111.6,92.7,109.3z"/>
		<g>
			<path class="st5" d="M89.4,98.5c1.3-1.4,2.1-3,2.5-4.4c0,0,0-0.1,0-0.1c0-0.1,0.1-0.3,0.1-0.4c0-0.1,0-0.1,0.1-0.2
				c0-0.1,0.1-0.3,0.1-0.4c0,0,0-0.1,0-0.1c0.2-1,0.2-1.6,0.2-1.6c0-0.3,0-0.5,0-0.8c0-2.1-0.5-4.1-1.5-5.8
				C91,84.7,90.6,93.3,89.4,98.5z"/>
			<path class="st5" d="M87.3,102.9C87.2,103,87.3,103,87.3,102.9C87.3,103,87.3,103,87.3,102.9z"/>
		</g>
	</g>
	<g class="st2">
		<circle class="st3" cx="516.1" cy="99.8" r="20"/>
		<polyline class="st4" points="516.1,136.5 516.1,113.4 504.7,104.4 		"/>
		<line class="st4" x1="516.1" y1="114.9" x2="516.1" y2="88.9"/>
		<line class="st4" x1="516.1" y1="101.4" x2="524.8" y2="92.8"/>
		<path class="st5" d="M533.6,90.1c0,0.3,0.2,23-24.9,28.3c2.3,0.9,4.8,1.4,7.4,1.4c11,0,20-9,20-20C536.1,96.3,535.2,93,533.6,90.1
			z"/>
		<g>
			<path class="st6" d="M501.5,90.7c0,0,1.7-5.7,8.8-7.7"/>
			<line class="st6" x1="511.9" y1="82.5" x2="511.9" y2="82.5"/>
		</g>
	</g>
	<g class="st2">
		<path class="st3" d="M565.3,87.7c-0.7-0.6-2.9-2.8-0.4-5.5c0.3-0.3,0.7-0.6,1-0.9c1.4-1.5,2.2-3.1,2.6-4.5c0,0,0-0.1,0-0.1
			c0-0.1,0.1-0.3,0.1-0.4c0-0.1,0-0.1,0.1-0.2c0-0.1,0.1-0.3,0.1-0.4c0,0,0-0.1,0-0.1c0.2-1,0.2-1.6,0.2-1.6c0-0.3,0-0.5,0-0.8
			c0-6.8-5.5-12.3-12.3-12.3s-12.3,5.5-12.3,12.3c0,0.3,0,0.5,0,0.8l0,0c0,0,0.1,4.7,3.7,8c3.6,3.3-0.2,6-0.2,6l0,0
			c-3.7,2.7-6,7-6,11.9c0,8.2,6.6,14.8,14.8,14.8c8.2,0,14.8-6.6,14.8-14.8C571.6,94.8,569.1,90.4,565.3,87.7z"/>
		<path class="st3" d="M556.8,60.8c-6.8,0-12.3,5.5-12.3,12.3c0,0.3,0,0.5,0,0.8l0,0c0,0,0.1,4.7,3.7,8c3.6,3.3-0.2,6-0.2,6l0,0
			c-3.7,2.7-6,7-6,11.9c0,8.2,6.6,14.8,14.8,14.8"/>
		<line class="st4" x1="556.8" y1="136.5" x2="556.8" y2="71.4"/>
		<line class="st4" x1="547.4" y1="96.9" x2="556.8" y2="106.3"/>
		<line class="st4" x1="556.8" y1="79.6" x2="561.6" y2="74.8"/>
		<line class="st4" x1="556.8" y1="96" x2="562.3" y2="90.5"/>
		<g>
			<path class="st6" d="M547,71.7c0,0,1.7-5.7,8.8-7.7"/>
			<line class="st6" x1="557.4" y1="63.5" x2="557.4" y2="63.5"/>
		</g>
		<path class="st5" d="M569.3,92c-0.3,4.9-2.4,16.9-15.5,22.3c1,0.2,1.9,0.3,3,0.3c8.2,0,14.8-6.6,14.8-14.8
			C571.6,96.9,570.8,94.2,569.3,92z"/>
		<g>
			<path class="st5" d="M566.1,81.2c1.3-1.4,2.1-3,2.5-4.4c0,0,0-0.1,0-0.1c0-0.1,0.1-0.3,0.1-0.4c0-0.1,0-0.1,0.1-0.2
				c0-0.1,0.1-0.3,0.1-0.4c0,0,0-0.1,0-0.1c0.2-1,0.2-1.6,0.2-1.6c0-0.3,0-0.5,0-0.8c0-2.1-0.5-4.1-1.5-5.8
				C567.6,67.4,567.3,76,566.1,81.2z"/>
			<path class="st5" d="M563.9,85.6C563.9,85.6,563.9,85.7,563.9,85.6C563.9,85.7,563.9,85.6,563.9,85.6z"/>
		</g>
	</g>
	<g class="st2">
		<path class="st3" d="M316.4,122L316.4,122c-7.6,0-13.7-6.1-13.7-13.7V83.4c0-7.6,6.1-13.7,13.7-13.7h0c7.6,0,13.7,6.1,13.7,13.7
			v24.9C330.1,115.9,324,122,316.4,122z"/>
		<path class="st3" d="M316.4,122L316.4,122c-7.6,0-13.7-6.1-13.7-13.7V83.4c0-7.6,6.1-13.7,13.7-13.7h0"/>
		<line class="st4" x1="316.4" y1="137.2" x2="316.4" y2="83"/>
		<line class="st4" x1="316.4" y1="111.8" x2="325.3" y2="102.8"/>
		<line class="st4" x1="308.3" y1="88.8" x2="316" y2="96.5"/>
		<g>
			<path class="st6" d="M306,80.5c0,0,1.7-5.7,8.8-7.7"/>
			<line class="st6" x1="316.4" y1="72.3" x2="316.4" y2="72.3"/>
		</g>
		<path class="st5" d="M330.1,108.3v-3.6c-1.8,4-7.3,13.6-17.9,16.7c1.3,0.4,2.7,0.6,4.1,0.6C324,122,330.1,115.9,330.1,108.3z"/>
	</g>
	<g class="st2">
		<path class="st3" d="M596.1,128L596.1,128c-7.6,0-13.7-6.1-13.7-13.7V89.4c0-7.6,6.1-13.7,13.7-13.7l0,0c7.6,0,13.7,6.1,13.7,13.7
			v24.9C609.9,121.9,603.7,128,596.1,128z"/>
		<path class="st3" d="M596.1,128L596.1,128c-7.6,0-13.7-6.1-13.7-13.7V89.4c0-7.6,6.1-13.7,13.7-13.7l0,0"/>
		<line class="st4" x1="596.1" y1="143.3" x2="596.1" y2="89.1"/>
		<line class="st4" x1="596.1" y1="117.9" x2="605.1" y2="108.9"/>
		<line class="st4" x1="588.1" y1="94.8" x2="595.8" y2="102.6"/>
		<g>
			<path class="st6" d="M585.8,86.5c0,0,1.7-5.7,8.8-7.7"/>
			<line class="st6" x1="596.1" y1="78.4" x2="596.1" y2="78.4"/>
		</g>
		<path class="st5" d="M609.9,114.3v-3.6c-1.8,4-7.3,13.6-17.9,16.7c1.3,0.4,2.7,0.6,4.1,0.6C603.7,128,609.9,121.9,609.9,114.3z"/>
	</g>
	<g class="st2">
		<path class="st7" d="M738.1,383.3c11-3.4,21.1-9.2,31.7-13.9c65.6-28.9,141.5-11.2,209.9,10.3c37.7,11.8,76.7,24.5,113.1,9.3
			V137.9c-71.2-5.4-156.8,3.6-185.8,10.7c-34.9,8.5-114.9-4.2-114.9-4.2C739,134,684.7,123.7,631.1,131.2c-17.6,2.5-35.2,6.9-53,5.7
			c-21.7-1.4-42.5-11.1-64.2-10.5c-20.2,0.6-39.1,10-59.1,13.1c-37,5.7-74.3-10.6-111.6-7.3c-20.7,1.8-40.6,9.6-61.2,12.1
			c-30,3.5-60.3-4.4-90.5-3c-15.9,0.7-31.6,4.1-47.4,6.3c-47.1,6.6-94.8,3.4-142.3-1.3c1.3,16.4,6.7,32.5,16.1,46.1
			c11.1,16.1,27.2,29,34.4,47.2c8.7,22.3,2,47.3,3.2,71.1c1.6,30.9,18.3,61.8,45.9,75.8c27.7,14,61.1,9.6,91.1,1.6
			s59.9-19.5,90.9-18.6c52.9,1.5,100.9,38.6,153.8,35.6c49-2.9,91.1-39.9,140.1-42.6C631.8,359.4,685.8,399.6,738.1,383.3z"/>
	</g>
	<g class="st2">
		<path class="st3" d="M708.8,105.6c-1.7-1.5-7-6.8-0.9-13.3c0.8-0.7,1.6-1.5,2.3-2.3c3.4-3.6,5.2-7.6,6.3-10.9
			c0-0.1,0.1-0.2,0.1-0.3c0.1-0.3,0.2-0.7,0.3-1c0-0.2,0.1-0.3,0.1-0.5c0.1-0.4,0.2-0.7,0.2-1c0-0.1,0-0.2,0.1-0.3
			c0.5-2.3,0.5-3.9,0.5-4c0-0.6,0.1-1.3,0.1-1.9c0-16.5-13.3-29.8-29.8-29.8c-16.5,0-29.8,13.3-29.8,29.8c0,0.6,0,1.3,0.1,1.9
			l-0.1,0c0,0,0.2,11.4,9,19.4c8.8,8-0.4,14.6-0.4,14.6l0,0c-8.9,6.5-14.7,17.1-14.7,28.9c0,19.8,16.1,35.9,35.9,35.9
			c19.8,0,35.9-16.1,35.9-35.9C724.1,122.8,718.1,112.1,708.8,105.6z"/>
		<path class="st3" d="M688.2,40.3c-16.5,0-29.8,13.3-29.8,29.8c0,0.6,0,1.3,0.1,1.9l-0.1,0c0,0,0.2,11.4,9,19.4
			c8.8,8-0.4,14.6-0.4,14.6l0,0c-8.9,6.5-14.7,17.1-14.7,28.9c0,19.8,16.1,35.9,35.9,35.9"/>
	</g>
	<g class="st2">
		<path class="st3" d="M186.5,109.3c-1.7-1.5-7-6.8-0.9-13.3c0.8-0.7,1.6-1.5,2.3-2.3c3.4-3.6,5.2-7.6,6.3-10.9
			c0-0.1,0.1-0.2,0.1-0.3c0.1-0.3,0.2-0.7,0.3-1c0-0.2,0.1-0.3,0.1-0.5c0.1-0.4,0.2-0.7,0.2-1c0-0.1,0-0.2,0.1-0.3
			c0.5-2.3,0.5-3.9,0.5-4c0-0.6,0.1-1.3,0.1-1.9c0-16.5-13.3-29.8-29.8-29.8S136,57.3,136,73.8c0,0.6,0,1.3,0.1,1.9l-0.1,0
			c0,0,0.2,11.4,9,19.4c8.8,8-0.4,14.6-0.4,14.6l0,0c-8.9,6.5-14.7,17.1-14.7,28.9c0,19.8,16.1,35.9,35.9,35.9s35.9-16.1,35.9-35.9
			C201.7,126.5,195.7,115.8,186.5,109.3z"/>
		<path class="st3" d="M165.8,44C149.4,44,136,57.3,136,73.8c0,0.6,0,1.3,0.1,1.9l-0.1,0c0,0,0.2,11.4,9,19.4
			c8.8,8-0.4,14.6-0.4,14.6l0,0c-8.9,6.5-14.7,17.1-14.7,28.9c0,19.8,16.1,35.9,35.9,35.9"/>
		<line class="st8" x1="165.8" y1="227.9" x2="165.8" y2="69.7"/>
		<line class="st8" x1="143" y1="131.7" x2="165.8" y2="154.5"/>
		<line class="st8" x1="165.8" y1="89.6" x2="177.5" y2="77.9"/>
		<line class="st8" x1="165.8" y1="129.4" x2="179" y2="116.2"/>
		<g>
			<path class="st9" d="M142.1,70.4c0,0,4.1-13.7,21.2-18.7"/>
			<line class="st9" x1="167.2" y1="50.6" x2="167.2" y2="50.6"/>
		</g>
		<path class="st5" d="M196.2,119.6c-0.7,12-5.9,41-37.6,54.2c2.3,0.5,4.7,0.7,7.2,0.7c19.8,0,35.9-16.1,35.9-35.9
			C201.7,131.7,199.7,125.1,196.2,119.6z"/>
		<g>
			<path class="st5" d="M188.2,93.4c3.2-3.5,5-7.4,6-10.6c0-0.1,0.1-0.2,0.1-0.3c0.1-0.3,0.2-0.7,0.3-1c0-0.2,0.1-0.3,0.1-0.5
				c0.1-0.4,0.2-0.7,0.2-1c0-0.1,0-0.2,0.1-0.3c0.5-2.3,0.5-3.9,0.5-4c0-0.6,0.1-1.3,0.1-1.9c0-5.1-1.3-9.9-3.5-14.1
				C192.1,59.9,191.2,80.9,188.2,93.4z"/>
			<path class="st5" d="M183,104.2c0,0.1,0,0.1,0,0.1C183,104.3,183,104.3,183,104.2z"/>
		</g>
	</g>
	<g class="st2">
		<path class="st10" d="M970.9,223.9C897.2,247,815.4,266.1,744.7,235c-11.4-5-22.2-11.3-34.1-15c-56.3-17.6-114.5,25.8-173.4,22.6
			c-52.8-2.9-98.1-42.8-150.9-45.9c-56.9-3.3-108.7,36.7-165.7,38.3c-33.5,0.9-65.6-11.4-98-20.1c-28.9-7.8-60.7-12.4-88.5-2.4
			c7.2,8.3,14,16.9,17.9,27c8.7,22.3,2,47.3,3.2,71.1c1.6,30.9,18.3,61.8,45.9,75.8c27.7,14,61.1,9.6,91.1,1.6
			c30-8.1,59.9-19.5,90.9-18.6c52.9,1.5,100.9,38.6,153.8,35.6c49-2.9,91.1-39.9,140.1-42.6c54.7-3,108.6,37.2,160.9,20.9
			c11-3.4,21.1-9.2,31.7-13.9c65.6-28.9,141.5-11.2,209.9,10.3c37.7,11.8,76.7,24.5,113.1,9.3V213.9
			C1053.5,197.5,1011.5,211.2,970.9,223.9z"/>
	</g>
</g>
<g id="Design">
	<g>
		<path class="st0" d="M65.5,40.9c-8.3,15.6-20.2,30.3-21.6,47.9c-1.3,16.3,6.8,31.8,9.7,48c3.4,19.2-0.7,38.8-5.1,57.8
			c-4.4,19-9,38.4-6.8,57.7c2.3,19.3,13.1,39,31.2,46c13.4,5.1,28.6,2.9,42.2,7.2c21.5,6.9,35.1,28.7,55.6,38.1
			c13.2,6,28.2,6.5,42.7,6.4c22.6,0,45.7-1,66.9-9.1c14-5.3,26.9-13.6,41.6-16.7c24-5,48.3,4.9,71.6,12.3c23.4,7.4,83,7.5,103.4-6.2
			c13.3-9,20.8-24,27.8-38.4c10.2-21,20.4-42,26.8-64.4c9.1-31.6-22-60.6-11.2-91.6c13.2-37.9,40.4-71.9,41.8-112
			c0.3-8.2-0.5-16.2-2.2-24H71C76,12.4,72.1,28.4,65.5,40.9z"/>
	</g>
	<g>
		<g>
			<g>
				<path class="st3" d="M97.7,345.3c-2.2-0.7-4.8,0.3-6.1,2.3c-0.3-2.3-0.6-4.6-1.6-6.7c-1-2.1-2.9-3.9-5.2-4.2
					c-2.8-0.4-5.6,1.6-6.8,4.2c-1.3,2.6-1.4,5.5-1.2,8.4c0.3,6.8,1.6,13.6,3.9,20c-1.4-1-3.2-1.6-5-1.6c-1,0-2,0.2-2.9,0.8
					c-1.4,1-1.8,3.1-1.3,4.8c0,0-0.2,3.9,15.1,22l8.4-12c5.2-6.8,3.7-9.3,1.9-11.2c-1.1-1.2-3-1.8-4.6-1.4c-0.2,0-0.4,0.1-0.5,0.2
					c0.3-1,0.7-1.9,1.2-2.9c1.4-2.6,3.5-4.8,5.3-7.2c1.8-2.4,3.4-5.1,3.6-8.1C102.2,349.5,100.6,346.2,97.7,345.3z"/>
			</g>
			<line class="st16" x1="86.7" y1="352.1" x2="86.7" y2="399.8"/>
		</g>
		<line class="st16" x1="79.2" y1="375.1" x2="86.7" y2="384.4"/>
		<line class="st16" x1="82.1" y1="358.7" x2="86.7" y2="365.9"/>
		<line class="st16" x1="86.7" y1="359.5" x2="91.5" y2="352.6"/>
	</g>
	<path class="st17" d="M202,250.3c0,0-11.7,1.6-11.8,7.7c0,0,0.5,2.9,2.7,0.9c2.1-2.1,2.9-2,2.9-2s-4.1,2.5-3.7,4.5s3.7-1.6,6.3-3.3
		c0,0-5.3,3.8-2.9,6.1c2.1,2,5.1-4.9,5.1-4.9s-2.9,5.5,0.7,4.4c3.6-1.1,5.5-5.9,5.5-5.9L202,250.3z"/>
	<path class="st18" d="M203.8,260.6l-4.6-10.9c0,0,36.5-13.5,38.5-16.9c2-3.4-5-58.8,18.1-61.7c15.7-2,2.4,66.3,2.4,66.3
		S247.3,245.8,203.8,260.6z"/>
	<circle class="st19" cx="168.7" cy="260.9" r="11.2"/>
	<path class="st20" d="M187.9,266.6c0,0,8.4-14.9,14.3-5.1c6,9.8-5.5,26.7-5.5,26.7"/>
	
		<rect x="129.8" y="291.4" transform="matrix(0.9956 9.339794e-02 -9.339794e-02 0.9956 28.1785 -12.448)" class="st15" width="34.5" height="6.9"/>
	<path class="st15" d="M129.4,283.7c3.4,0.3,5.8,4.7,5.3,9.8s-3.5,9-6.9,8.8"/>
	<path class="st17" d="M211.3,259.2c0,0-13.7-1-15.4,5.9c0,0-0.1,3.5,2.8,1.6c2.9-1.8,3.8-1.6,3.8-1.6s-5.3,1.9-5.3,4.3
		c0,2.4,4.7-0.9,8-2.3c0,0-7,3-4.8,6.3c1.9,2.8,7.1-4.3,7.1-4.3s-4.7,5.6-0.3,5.2c4.4-0.4,7.8-5.4,7.8-5.4L211.3,259.2z"/>
	<path class="st21" d="M266,389.9h11.3c1.7,0,3.1-1.4,2.9-3.1l-3.9-94.2c0-0.4,0.5-0.4,0.6-0.1l19.1,95c0.3,1.4,1.5,2.4,3,2.4h11.9
		c2,0,3.6-1.8,3.3-3.8L299.1,265c0-0.1-0.1-0.3-0.3-0.3l-49.2-1.3c-0.2,0-0.3,0.2-0.3,0.3L262.8,387
		C262.9,388.7,264.3,389.9,266,389.9z"/>
	<g>
		<polygon class="st17" points="410.7,394.7 414.8,397.6 426.4,397.9 423.4,388.4 412.3,389.9 		"/>
		<path class="st21" d="M411,393.7c0,0,5.9,3.5,15.8,3.5l2.1,6.1h-35.8c0,0-1.7-7,6.8-6.6S411,393.7,411,393.7z"/>
		
			<rect x="393.1" y="403.4" transform="matrix(-1 -3.838453e-11 3.838453e-11 -1 822.0124 808.21)" class="st22" width="35.8" height="1.4"/>
	</g>
	<g>
		<polygon class="st17" points="365,394.7 369.1,397.6 380.7,397.9 378,389.9 366.5,389.9 		"/>
		<path class="st21" d="M365.3,393.7c0,0,5.9,3.5,15.8,3.5l1.7,6.1h-35.4c0,0-1.7-7,6.8-6.6S365.3,393.7,365.3,393.7z"/>
		
			<rect x="347.4" y="403.4" transform="matrix(-1 -3.879620e-11 3.879620e-11 -1 730.2 808.21)" class="st22" width="35.4" height="1.4"/>
	</g>
	<path class="st22" d="M427.6,382l-18-116.8c0-0.1-0.1-0.2-0.2-0.2l-24.2-1.2c-0.1,0-0.2-0.1-0.2-0.2v-2.7c0-0.1-0.1-0.2-0.2-0.2
		l-28.8,6.5c-0.1,0-0.2,0.1-0.1,0.2l7,116.6c0.2,3.4,2.9,6,6.1,6h8.4c3.3,0,6-2.8,6.1-6.3l1.7-94.6c0-0.2,0.3-0.3,0.4,0l20.3,96.9
		c1.1,3.3,3.9,4,7.6,4l10.1-0.3c0,0,0,0,0.1,0C426.7,388.6,428.4,385.2,427.6,382z"/>
	<path class="st23" d="M371.9,270.8c0,0,2.8,12.6-12.5,13.3"/>
	<path class="st23" d="M397.7,270.2c0,0-2.8,12.6,12.5,13.3"/>
	<rect x="258.2" y="149" class="st14" width="15.7" height="24.3"/>
	<path class="st18" d="M383.3,83.8c-11.3-0.4-39.8,3.4-35.7,53c5.1,61.7,12.2,46.4,12.2,46.4l23.5-1.3l23.5,1.3
		c0,0,7.1,15.3,12.2-46.4C423,87.2,394.6,83.4,383.3,83.8z"/>
	<g>
		<path class="st17" d="M240.8,133.9c0,0-7.8-6.6-4.4-12.1c2.1-3.3,3.2,0.1,3.2,0.1L240.8,133.9z"/>
		<path class="st17" d="M291.4,133.9c0,0,7.8-6.6,4.4-12.1c-2.1-3.3-3.2,0.1-3.2,0.1L291.4,133.9z"/>
	</g>
	<g>
		<polygon class="st17" points="298.3,394.7 302.4,397.6 314,397.9 311.3,389.9 299.9,389.9 		"/>
		<path class="st15" d="M298.6,393.7c0,0,5.9,3.5,15.8,3.5v6.1h-33.6c0,0-1.7-7,6.8-6.6S298.6,393.7,298.6,393.7z"/>
		
			<rect x="280.7" y="403.4" transform="matrix(-1 -4.079282e-11 4.079282e-11 -1 595.0916 808.21)" class="st24" width="33.6" height="1.4"/>
	</g>
	<polygon class="st17" points="265.3,394.7 269.5,397.6 278,397.9 277.6,389.9 266.9,389.9 	"/>
	<path class="st15" d="M265.6,393.7c0,0,2.8,3.5,12.7,3.5v6.1h-30.5c0,0-1.7-7,6.8-6.6C263.1,397.2,265.6,393.7,265.6,393.7z"/>
	
		<rect x="247.7" y="403.4" transform="matrix(-1 -4.496149e-11 4.496149e-11 -1 525.9711 808.21)" class="st24" width="30.5" height="1.4"/>
	<g>
		<path class="st15" d="M384.2,166.1c-0.3,0-0.6,0-1,0v0c0,0,0,0-0.1,0c0,0,0,0-0.1,0v0c-0.3,0-0.6,0-1,0c-0.4,0-0.7,0-1.1,0l0,0.1
			c-28.8,1.4-34.2,12-34.2,12l7.8,8.8c0,0-2.7,20.8-2.1,36c0.8,20.1,1.6,44.1,1.6,44.1H381h2h0.3"/>
		<path class="st15" d="M381.9,166.1c0.3,0,0.6,0,1,0v0c0,0,0,0,0.1,0c0,0,0,0,0.1,0v0c0.3,0,0.6,0,1,0c0.4,0,0.7,0,1.1,0l0,0.1
			c28.8,1.4,34.2,12,34.2,12l-7.8,8.8c0,0,2.7,20.8,2.1,36c-0.8,20.1-1.6,44.1-1.6,44.1h-26.7h-2h-0.3"/>
	</g>
	<path class="st14" d="M389.4,166.5v-15.1H377v15.1c-6.1,0.5-11,1.5-15,2.6c0.5,13.2,9.7,13.4,21.1,13.4c11.4,0,20.7-0.2,21.1-13.4
		C400.4,167.9,395.5,167,389.4,166.5z"/>
	<g>
		<circle class="st17" cx="356.9" cy="129" r="5.9"/>
		<circle class="st17" cx="409.6" cy="129" r="5.9"/>
	</g>
	<g>
		<ellipse class="st17" cx="383.3" cy="125.1" rx="27.5" ry="33.2"/>
		<path class="st26" d="M384.4,119c0,0-0.6,11.4-2.1,13.3c-1.5,1.9-3,7.2,3.2,7.2"/>
	</g>
	<path class="st27" d="M375.6,143.3c0,0,8,8.4,15.4,0"/>
	<g>
		<path class="st26" d="M388.8,115c0,0,6.1-5.8,12.3,1"/>
		<path class="st26" d="M377.7,115c0,0-6.1-5.8-12.3,1"/>
	</g>
	<path class="st18" d="M382.9,88.8c-32.1,0-27.1,34.4-27.1,34.4s1.3-14.9,14.6-14.9c10.7,0,18.5-4.9,22.5-7.2
		c4.7,2.5,17,11.4,17,21.8l4.4-0.1C414.4,122.8,413.1,88.8,382.9,88.8z"/>
	<g>
		<g>
			<g>
				<path class="st3" d="M394.4,176.7c-2.3-0.7-4.9,0.3-6.2,2.3c-0.3-2.3-0.6-4.7-1.7-6.8c-1-2.1-2.9-3.9-5.3-4.3
					c-2.9-0.4-5.7,1.7-7,4.3c-1.3,2.6-1.4,5.6-1.3,8.5c0.3,7,1.6,13.9,4,20.4c-1.5-1-3.3-1.6-5.1-1.7c-1,0-2.1,0.2-2.9,0.8
					c-1.5,1-1.8,3.1-1.3,4.9c0,0-0.2,3.9,15.4,22.5l8.6-12.3c5.3-7,3.8-9.5,1.9-11.5c-1.2-1.3-3-1.8-4.7-1.5c-0.2,0-0.4,0.1-0.6,0.2
					c0.3-1,0.8-2,1.3-2.9c1.5-2.7,3.6-4.9,5.4-7.4c1.9-2.4,3.5-5.2,3.7-8.3C399,180.9,397.4,177.6,394.4,176.7z"/>
			</g>
			<line class="st28" x1="383.2" y1="183.7" x2="383.2" y2="232.4"/>
		</g>
		<line class="st28" x1="375.5" y1="207.1" x2="383.2" y2="216.6"/>
		<line class="st28" x1="378.5" y1="190.4" x2="383.2" y2="197.7"/>
		<line class="st28" x1="383.2" y1="191.1" x2="388.1" y2="184.1"/>
	</g>
	<g>
		<path class="st17" d="M293.5,120.6c0,17.8-12.3,36.4-27.5,36.4c-15.2,0-27.5-18.6-27.5-36.4s12.3-32.2,27.5-32.2
			C281.3,88.4,293.5,102.8,293.5,120.6z"/>
		<path class="st29" d="M267.5,115.8c0,0-0.2,8.9-1.3,11.1c-1.3,2.6-8,8.7,0.3,8.7"/>
	</g>
	<g>
		<path class="st26" d="M271.6,112.7c0,0,6.1-5.8,12.3,1"/>
		<path class="st26" d="M260.6,112.7c0,0-6.1-5.8-12.3,1"/>
	</g>
	<line class="st30" x1="262.6" y1="120.6" x2="269.6" y2="120.6"/>
	<g>
		<g>
			<line class="st31" x1="239" y1="120.5" x2="247.4" y2="120.5"/>
			<line class="st30" x1="239" y1="120.5" x2="247.4" y2="120.5"/>
		</g>
		<g>
			<line class="st31" x1="284.8" y1="120.5" x2="293.2" y2="120.5"/>
			<line class="st30" x1="284.8" y1="120.5" x2="293.2" y2="120.5"/>
		</g>
	</g>
	<g>
		<path class="st32" d="M262.5,123.6c0,4.7-3.4,7.7-7.5,7.7c-4.1,0-7.5-3-7.5-7.7c0-4.7,3.4-7.8,7.5-7.8
			C259.1,115.8,262.5,118.9,262.5,123.6z"/>
		<path class="st32" d="M284.7,123.6c0,4.7-3.4,7.7-7.5,7.7c-4.1,0-7.5-3-7.5-7.7c0-4.7,3.4-7.8,7.5-7.8
			C281.3,115.8,284.7,118.9,284.7,123.6z"/>
	</g>
	<path class="st33" d="M266.1,138c-8.4,0-8.7,6-8.7,6s0.6,1.8,1.6,0.1c1.6-2.6,5-2.5,6.7-2.8c0.3,0,0.5,0,0.8,0
		c1.7,0.3,5.2,0.2,6.7,2.8c1,1.7,1.6-0.1,1.6-0.1S274.4,138,266.1,138z"/>
	<path class="st33" d="M266.1,147.9h-2.7c0,0,0.2,3,2.7,3c2.5,0,2.7-3,2.7-3H266.1z"/>
	<path class="st33" d="M266.1,153.4c-18.8-0.1-25.5-21.2-25.5-21.2c1.3,24.2,22.7,25.4,25.3,25.5h0.3c2.7-0.1,24.1-1.3,25.5-25.5
		C291.6,132.3,284.9,153.3,266.1,153.4z"/>
	<path class="st34" d="M269.6,143.4c0,1-1.6,2.8-3.5,2.8c-1.9,0-3.5-1.8-3.5-2.8"/>
	<g>
		<path class="st33" d="M284.9,93.7c-0.4-0.4-0.5-1.2-1.1-1.2c-0.2,0-0.4,0.1-0.6,0.1c-0.7-0.1-0.5-1.3-0.9-1.9
			c-0.7-0.9-2.2,0.2-3.1-0.4c-0.9-0.7-0.4-2.6-1.5-3c-0.7-0.2-1.6,0.6-2.3,0.3c-0.5-0.2-0.7-1-1.2-1.3c-0.7-0.4-1.7,0.3-2.4,0
			c-0.4-0.2-0.6-0.6-0.9-0.9c-0.5-0.4-1.2-0.5-1.8-0.5c-1-0.1-1.9-0.1-2.9-0.2v0c0,0,0,0,0,0c0,0,0,0,0,0v0c-1,0.1-1.9,0.1-2.9,0.2
			c-0.6,0-1.3,0.1-1.8,0.5c-0.3,0.3-0.5,0.7-0.9,0.9c-0.8,0.4-1.7-0.4-2.4,0c-0.5,0.3-0.6,1-1.2,1.3c-0.7,0.3-1.5-0.6-2.3-0.3
			c-1.1,0.4-0.6,2.4-1.5,3c-0.9,0.6-2.4-0.5-3.1,0.4c-0.4,0.6-0.2,1.8-0.9,1.9c-0.2,0-0.4-0.1-0.6-0.1c-0.6,0-0.7,0.8-1.1,1.2
			c-4.3,4.3-7,12.8-7.6,17h3.1c7.9-22.3,21.9-13.6,23.2-13h0.1c1.2-0.6,15.3-9.3,23.2,13h3.1C291.9,106.6,289.2,98,284.9,93.7z"/>
	</g>
	<g>
		<g>
			<circle class="st33" cx="240.5" cy="112" r="0.4"/>
			<circle class="st33" cx="241.7" cy="112" r="0.4"/>
			<circle class="st33" cx="243" cy="112" r="0.4"/>
			<circle class="st33" cx="240.1" cy="113.2" r="0.4"/>
			<circle class="st33" cx="241.4" cy="113.2" r="0.4"/>
			<circle class="st33" cx="240" cy="114.5" r="0.4"/>
			<circle class="st33" cx="241.2" cy="114.5" r="0.4"/>
			<circle class="st33" cx="239.8" cy="115.8" r="0.4"/>
		</g>
		<g>
			<circle class="st33" cx="291.7" cy="112" r="0.4"/>
			<circle class="st33" cx="290.5" cy="112" r="0.4"/>
			<circle class="st33" cx="289.2" cy="112" r="0.4"/>
			<circle class="st33" cx="292" cy="113.2" r="0.4"/>
			<circle class="st33" cx="290.8" cy="113.2" r="0.4"/>
			<circle class="st33" cx="292.2" cy="114.5" r="0.4"/>
			<circle class="st33" cx="291" cy="114.5" r="0.4"/>
			<circle class="st33" cx="292.4" cy="115.8" r="0.4"/>
		</g>
	</g>
	<path class="st18" d="M272.5,165.1c0,0-22.1,4-25.1,16.1c-3,12.2-6.2,61.9,1.8,89.8l50.9-2.2C300.1,268.9,309.3,168.2,272.5,165.1z
		"/>
	<path class="st35" d="M208.3,258.9c0,0,49.4-19.1,51.3-22.4c1.9-3.3-2-53.8,13.3-55.5c15.3-1.8,3.4,63,3.4,63s-2.5,3.4-19.9,10.2
		c-22.2,8.7-44.2,16.9-44.2,16.9L208.3,258.9z"/>
	<path class="st36" d="M249.3,188.7c0,0-5.1,38.9-3.7,54.7"/>
	<path class="st14" d="M254.3,171.3c0,0,1.2,3.4,9.1,3.4S277,166,277,166l-5.4-1.9L254.3,171.3z"/>
	<g>
		<path class="st21" d="M396.6,231.5v18c0,4.2-2.3,5.5-5.2,5.5h-16.5c-2.8,0-5.2-1.3-5.2-5.5v-18"/>
	</g>
	<g>
		<path class="st17" d="M365.9,236.2l-3.8,10.3c17.2,5.1,16.6,3.3,16.9,1.7c0.1-0.9-7-1.9-7-1.9c4.5,0.3,8.5,1.9,8.7-0.3
			c0.2-1.7-8.8-2.9-8.8-2.9s0,0,1.2,0.1c1.2,0.1,7.5,1.7,7.9-0.4c0.4-2.2-8-2.6-8-2.6c4.3,0.4,8.7,0.9,8.4-1.1
			c-0.2-1.8-8.3-2.5-8.3-2.5L365.9,236.2z"/>
		<path class="st17" d="M400.5,236.2l3.8,10.3c-17.2,5.1-16.6,3.3-16.9,1.7c-0.1-0.9,7-1.9,7-1.9c-4.5,0.3-8.5,1.9-8.7-0.3
			c-0.2-1.7,8.8-2.9,8.8-2.9s0,0-1.2,0.1c-1.2,0.1-7.5,1.7-7.9-0.4c-0.4-2.2,8-2.6,8-2.6c-4.3,0.4-8.7,0.9-8.4-1.1
			c0.2-1.8,8.3-2.5,8.3-2.5L400.5,236.2z"/>
	</g>
	<g class="st37">
		<g>
			<circle class="st18" cx="367.3" cy="137" r="0.7"/>
			<circle class="st18" cx="364.7" cy="141.9" r="0.7"/>
			<circle class="st18" cx="368" cy="140.6" r="0.7"/>
			<circle class="st18" cx="371.3" cy="138.7" r="0.7"/>
			<circle class="st18" cx="364.2" cy="138.5" r="0.7"/>
		</g>
		<g>
			<circle class="st18" cx="399.2" cy="137" r="0.7"/>
			<circle class="st18" cx="401.8" cy="141.9" r="0.7"/>
			<circle class="st18" cx="398.5" cy="140.6" r="0.7"/>
			<circle class="st18" cx="395.2" cy="138.7" r="0.7"/>
			<circle class="st18" cx="402.3" cy="138.5" r="0.7"/>
		</g>
	</g>
	<g>
		<g>
			<circle class="st38" cx="372.2" cy="126" r="8.2"/>
			<circle class="st38" cx="394.6" cy="126" r="8.2"/>
		</g>
		<line class="st38" x1="380" y1="123" x2="386.9" y2="123"/>
		<g>
			<line class="st39" x1="402.4" y1="122.9" x2="410.4" y2="122.9"/>
			<line class="st39" x1="356.1" y1="122.9" x2="364.5" y2="122.9"/>
		</g>
	</g>
	<g>
		<circle class="st21" cx="372.2" cy="126.3" r="2"/>
		<circle class="st21" cx="394.5" cy="126.3" r="2"/>
	</g>
	<g>
		<circle class="st21" cx="254.9" cy="123.5" r="2"/>
		<circle class="st21" cx="277.3" cy="123.5" r="2"/>
	</g>
	<path class="st40" d="M363.9,105.7c0,0,21.2,2.2,28.2-10.3C392.1,95.4,380.8,103.6,363.9,105.7z"/>
	<g>
		<path class="st41" d="M359.5,98.5c0,0,7.3-10.3,22.6-10.3"/>
		<line class="st42" x1="384" y1="88.2" x2="384.4" y2="88.2"/>
	</g>
	<g>
		<path class="st41" d="M247.6,96.6c0,0,6.7-5.6,12.6-6.2"/>
		<line class="st41" x1="261.9" y1="90.2" x2="262.6" y2="90.1"/>
	</g>
	<path class="st43" d="M258.9,272.5c0,0,4.5,14.1-4.7,15.5"/>
	<path class="st43" d="M291.2,271c0,0-4.8,16.3,8.7,16"/>
	<path class="st40" d="M287.7,269.4l12.4-0.5c0,0,6.8-75-15-97.5C289.1,188.2,300.2,241.8,287.7,269.4z"/>
	<path class="st24" d="M395.5,267.2h16.3c0,0,0.9-24,1.6-44.1c0.2-4.3,0.1-8.9-0.1-13.5C412.7,220.6,409.8,252.7,395.5,267.2z"/>
	<g>
		<path class="st15" d="M360.8,169.4l-3.4,13.4l-2.2,9.7c-21,37.9,16.9,43.5,16.9,43.5l-3.2,12.9c-56.7-13.7-22-70.7-22-70.7"/>
		<path class="st15" d="M419.5,178.2c0,0,34.7,56.9-22,70.7l-3.2-12.9c0,0,37.9-5.6,16.9-43.5l-2.2-9.7l-3.4-13.4"/>
	</g>
	<g>
		<path class="st15" d="M185.3,258c-0.8-1.4-2.5-2-4-1.5l-9.3,3.3l-6.7,2.4l-9.3,3.3c-1.5,0.5-2.4,2.1-2.1,3.7l6.2,35.3
			c0.4,2,2.4,3.2,4.3,2.5l14.8-5.2l6.7-2.4l14.8-5.2c1.9-0.7,2.8-2.9,1.8-4.7L185.3,258z"/>
		<path class="st24" d="M189.4,298.1l11.5-4.1c1.9-0.7,2.8-2.9,1.8-4.7L185.3,258c-0.2-0.4-0.5-0.7-0.8-0.9
			C187.2,266.7,192.2,287.2,189.4,298.1z"/>
	</g>
	<path class="st44" d="M156.9,273.4l-0.5-2.9c-0.2-1.2,0.3-2.5,1.3-3.1c0.5-0.3,1.1-0.6,2-0.8"/>
	<line class="st44" x1="160.8" y1="266.1" x2="160.9" y2="266.1"/>
	<g>
		<g>
			<path class="st45" d="M82.9,331.6c0,0,0-0.9,0.1-2.5"/>
			<path class="st46" d="M83.7,324.4c2.1-10.9,9.7-30.7,37.5-33.2"/>
			<path class="st45" d="M123.5,291c0.8,0,1.6-0.1,2.5-0.1"/>
		</g>
	</g>
	<g>
		<g>
			<path class="st45" d="M88.2,331.6c0,0,0-0.9,0.2-2.5"/>
			<path class="st47" d="M89.2,324.2c2.2-9.9,9.3-26.8,31.8-31"/>
			<path class="st45" d="M123.5,292.7c0.8-0.1,1.6-0.2,2.5-0.3"/>
		</g>
	</g>
	<g>
		<g>
			<path class="st45" d="M93.3,336.7c0,0,0-0.9,0.2-2.5"/>
			<path class="st48" d="M94.2,329.4c1.9-10.5,7.9-29.3,27-34.2"/>
			<path class="st45" d="M123.5,294.6c0.8-0.1,1.6-0.3,2.5-0.4"/>
		</g>
	</g>
	<path class="st49" d="M353.4,243.1c0,0,8.7,6.5,15.5,5.8l3.2-12.9c0,0-7.4-0.2-19.4-10.9"/>
	<path class="st49" d="M412.8,243.2c0,0-8.1,6.3-14.9,5.6l-3.2-12.9c0,0,6.8,0,18.8-10.7"/>
</g>
</svg>
