<?xml version="1.0" encoding="utf-8"?>
<!-- Generator: Adobe Illustrator 23.0.6, SVG Export Plug-In . SVG Version: 6.00 Build 0)  -->
<svg version="1.1" id="Layer_1" xmlns="http://www.w3.org/2000/svg" xmlns:xlink="http://www.w3.org/1999/xlink" x="0px" y="0px"
	 viewBox="0 0 843 117" style="enable-background:new 0 0 843 117;" xml:space="preserve">
<style type="text/css">
	.st0{fill:#333333;}
</style>
<g>
	<path class="st0" d="M837,102.6c-4,0.8-11.1,1.4-15,1.3c0-6.5,0.7-29.6,0.7-44.5c0-14.8-8.6-22.6-20.1-22.6
		c-9.6,0-19.6,6.3-26.1,14.6c-2.6-9.6-9.9-14.6-19.2-14.6c-9.4,0-18.7,5.7-25.2,13.4V44c0-4.1-2.8-7.2-7.6-7.2
		c-3,0-8.6,0.5-12.1,1.4c-0.6,1.7-0.8,4.7-0.8,6.7c4.7-0.8,9.4-1.4,12.7-1.3l0.1,67.2c2.4,0,5.8-0.2,7.6-0.8V55.7
		c5.2-6.1,14.3-12,23.4-12c8.8,0,14.2,6.5,14.2,17.8c0,27.1-0.5,33.3-0.2,42.4c0.1,4.4,2.4,6.9,7.3,7c2.6,0,8.7-0.5,12-1.5
		c0.5-1.2,0.7-5.6,0.6-6.6c-4,0.8-9.5,1.2-12.8,1.2c0-6.5,0.7-29.6,0.7-44.5c0-1.3-0.1-2.5-0.2-3.6c5.2-6.3,14.6-12.2,23.6-12.2
		c8.8,0,14.2,6.5,14.2,17.8c0,27.1-0.5,33.3-0.2,42.4c0.1,4.4,2.4,6.9,7.3,7c3.1,0,10.8-0.6,14.2-1.7
		C836.9,107.9,837.1,103.5,837,102.6L837,102.6z M702.9,103c-4.8,0.9-10.8,1.4-14.6,1.4l0.2-67.4c-2.4-0.1-5.9,0.3-7.8,0.9
		l-0.2,53.8c-4.7,6.6-15.4,12.9-27.3,12.9c-9.8,0-15.8-6.5-15.8-17.8c0-27.5,0.5-33.9,0.2-43.1c-0.1-4.4-2.4-6.9-7.3-7
		c-2.7,0-9.1,0.6-12.5,1.7c-0.5,1.2-0.7,5.6-0.6,6.6c4-0.8,9.8-1.4,13.4-1.3c0,6.5-0.7,30.2-0.7,45.1c0,14.8,9.2,22.6,21.7,22.6
		c12.1,0,21.8-6.3,29-14.3v6.8c0,4,2.9,7.2,7.7,7.2c3.6,0,10.6-0.5,14.2-1.5C702.8,108,702.9,105,702.9,103L702.9,103z M562.8,105.1
		c-10.6,0-18.5-5.9-18.5-15.6c0-10.3,8.3-15.6,20.4-15.6c11.5,0,17.8,0.9,24,3.3V87C586.7,97.9,574.9,105.1,562.8,105.1z
		 M610.6,102.9c-4.4,0.9-10.6,1.7-14.3,1.2c-0.1-8.5,0-29.1,0-43.4c0-14.8-9.5-24-24.7-24c-8.3,0-17.6,1.3-26.4,4.3
		c-0.6,1.4-0.5,5.3,0,6.8c6.3-2.4,16.3-4.4,25.2-4.4c13.6,0,18.3,9.4,18.3,18.2v10.2c-4.6-2.3-11.6-3.7-24.1-3.7
		c-17.1,0-27.8,8.5-27.8,21.6c0,12,9.6,22.1,25.4,22.1c11.1,0,22.4-7,26.6-15v7.2c0,4.4,3.6,7.3,7.7,7.5c3.7,0,9.6-0.8,13.1-1.6
		C610.2,109.1,610.6,103.9,610.6,102.9L610.6,102.9z M487.8,105.6c-10.9,0-18.6-7.2-22.5-14.5v-0.2c0-7.8,0-20.1,0-33.2
		c4.1-8.9,12.8-13.5,24-13.5c13.7,0,22.3,8.2,22.3,25.3v9.7C511.6,95.9,504.4,105.6,487.8,105.6L487.8,105.6z M491.2,37.7
		c-11.4,0-21.7,5.2-25.9,13.5c0-21.3,0-42.9,0-48.5c-2.5,0.1-6.2,0.8-7.7,1.5l-0.3,86.5c0,7.2-1.2,15.8-3.3,20.2
		c2.7,1.1,5.7,2.2,7.1,2c1.5-2.3,3.1-8.6,3.7-15.7c3.4,6.9,13.6,14.9,24.1,15h1.7c17.6,0.1,28.6-13.1,28.6-33v-9.9
		C519.4,50,508,37.7,491.2,37.7L491.2,37.7z M409.9,53.3v-8.9c0-4-2.8-7.6-7.6-7.6c-3,0-8.5,0.5-11.9,1.4c-0.6,1.7-0.8,4.6-0.8,6.6
		c4.6-0.8,9.2-1.5,12.6-1.4l0.1,67.4c2.4,0,5.8-0.3,7.6-0.8V61.3c4.5-12.9,14.4-17.3,28.6-17.5c0.3-2,0.6-5.2,0.6-7.1
		C425.2,35.9,414.4,42.1,409.9,53.3L409.9,53.3z M350.2,43.8c11.6,0,17.9,5,17.9,14.1c0,9.6-5.6,16.7-19.3,17.1
		c-12.2,0.3-23.4-2.3-27.7-3.7C322.2,55.6,334.8,43.8,350.2,43.8 M351.7,105.2c-17.1-0.4-30.7-9.7-30.7-28.5v-0.4
		c6.2,2.3,16.4,4.7,27.9,4.7c17.2,0,26.6-10.8,26.6-23.8c0-11.5-8.8-20.4-25.4-20.4c-20.1,0-36.6,16.6-36.6,36.6V77
		c0.1,22.8,16.7,35.2,37.5,35.2c6.4,0,13.3-0.3,20-2.5c0.4-2.3,0.5-5.5,0.3-7C365.4,104.4,357.9,105.3,351.7,105.2L351.7,105.2z
		 M257.3,105.5c-13.5,0-23.2-9-23.2-26.1v-7.5c0-15.8,7.2-27.8,24-27.8c11.2,0,18.4,6.6,22.8,12.2v34.6
		C276.9,100.1,267.6,105.5,257.3,105.5L257.3,105.5z M302.3,103c-4.4,0.9-10.2,1.4-13.8,1.2l0.1-101.6c-2.5,0-6.1,0.6-7.6,1.3v46.6
		c-4-6.5-13.3-13.4-23-13.2l-2.3,0.1c-18,0.6-29.4,14.6-29.4,34.4V80c0,19.5,13.1,32,29.9,32c10.7,0,19.3-5,24.7-13.8v5.7
		c0,4.4,3.1,7.2,7.7,7.3c2.8,0,9.8-0.4,13.1-1.6C302.2,108.4,302.4,104,302.3,103L302.3,103z M200.1,111.2c3.1,0,10.8-0.4,14.2-1.6
		c0.5-1.2,0.7-5.6,0.6-6.6c-4.4,0.9-10.7,1.4-14.5,1.2l0.1-101.6c-2.5,0-6.1,0.6-7.6,1.3l-0.2,99.9
		C192.7,108.3,195.1,111,200.1,111.2L200.1,111.2z M133.6,43.9c17.1,0,27,11.6,27,30.9c0,20.7-10.7,30.8-27,30.8
		c-16.5,0-27-10.1-27-30.8C106.6,55.4,116.2,43.9,133.6,43.9L133.6,43.9z M133.6,112.2c22.2,0,34.7-14.9,34.7-37.5
		c0-21.7-12.2-37.5-34.7-37.5S98.9,53.1,98.9,74.8C98.9,97.3,111.4,112.2,133.6,112.2L133.6,112.2z M87.1,102.6
		c-4,0.8-11.1,1.4-15,1.3c0-6.5,0.7-29.6,0.7-44.5c0-14.8-9.2-22.6-21.7-22.6c-11.9,0-22.2,6.9-28.9,16.3l0.1-43.9
		c0-4-2.8-7.2-7.6-7.2c-3,0-8.6,0.5-12.1,1.4C2,5.1,1.8,8.1,1.8,10.1c4.7-0.8,9.4-1.4,12.7-1.3l-0.3,102c2.4,0,5.9-0.3,7.8-0.9
		l0.1-50.1c6.3-9.6,15.2-16.1,27-16.1c9.8,0,15.9,6.5,15.9,17.8c0,27.1-0.5,33.3-0.2,42.4c0.1,4.4,2.4,6.9,7.3,7
		c3.1,0,10.8-0.6,14.2-1.7C87,108,87.2,103.6,87.1,102.6L87.1,102.6z"/>
</g>
</svg>
