<?xml version="1.0" encoding="utf-8"?>
<!-- Generator: Adobe Illustrator 23.0.6, SVG Export Plug-In . SVG Version: 6.00 Build 0)  -->
<svg version="1.1" xmlns="http://www.w3.org/2000/svg" xmlns:xlink="http://www.w3.org/1999/xlink" x="0px" y="0px"
	 viewBox="0 0 499.5 382.5" style="enable-background:new 0 0 499.5 382.5;" xml:space="preserve">
<style type="text/css">
	.st0{fill:#E3FFFF;}
	.st1{display:none;}
	.st2{display:inline;}
	.st3{fill:#33CC99;}
	.st4{fill:none;stroke:#3EA88C;stroke-width:0.7868;stroke-linecap:round;stroke-miterlimit:10;}
	.st5{opacity:0.48;fill:#3EA88C;}
	.st6{fill:none;stroke:#FFFFFF;stroke-linecap:round;stroke-miterlimit:10;}
	.st7{fill:#96F7BB;}
	.st8{fill:none;stroke:#3EA88C;stroke-width:1.5843;stroke-linecap:round;stroke-miterlimit:10;}
	.st9{fill:none;stroke:#FFFFFF;stroke-width:2.1124;stroke-linecap:round;stroke-miterlimit:10;}
	.st10{fill:#CCFFCF;}
	.st11{fill:none;stroke:#3EA88C;stroke-width:2.5741;stroke-linecap:round;stroke-miterlimit:10;}
	.st12{fill:none;stroke:#FFFFFF;stroke-width:3.4322;stroke-linecap:round;stroke-miterlimit:10;}
	.st13{fill:#3EA88C;}
	.st14{fill:#F39698;}
	.st15{fill:#6666FF;}
	.st16{fill:none;stroke:#3EA88C;stroke-width:0.7668;stroke-linecap:round;stroke-miterlimit:10;}
	.st17{fill:#F8B0A7;}
	.st18{fill:#E92175;}
	.st19{fill:none;stroke:#6666FF;stroke-width:3.8512;stroke-miterlimit:10;}
	.st20{fill:none;stroke:#4A54CB;stroke-width:3.8512;stroke-miterlimit:10;}
	.st21{fill:#333333;}
	.st22{fill:#CC7A66;}
	.st23{fill:none;stroke:#F39698;stroke-width:1.3172;stroke-linecap:round;stroke-miterlimit:10;}
	.st24{fill:#4A54CB;}
	.st25{fill:#DDAE8E;}
	.st26{fill:none;stroke:#D78181;stroke-width:1.1263;stroke-linecap:round;stroke-miterlimit:10;}
	.st27{fill:none;stroke:#E92175;stroke-width:1.1263;stroke-linecap:round;stroke-miterlimit:10;}
	.st28{fill:none;stroke:#3EA88C;stroke-width:0.7831;stroke-linecap:round;stroke-miterlimit:10;}
	.st29{fill:none;stroke:#D78181;stroke-width:1.1361;stroke-linecap:round;stroke-miterlimit:10;}
	.st30{fill:none;stroke:#FFFFFF;stroke-width:1.191;stroke-linecap:round;stroke-miterlimit:10;}
	.st31{fill:none;stroke:#3EA88C;stroke-width:1.191;stroke-linecap:round;stroke-miterlimit:10;}
	.st32{fill:none;stroke:#FFFFFF;stroke-width:1.191;stroke-miterlimit:10;}
	.st33{fill:#5A5A5A;}
	.st34{fill:none;stroke:#E92175;stroke-width:0.7964;stroke-linecap:round;stroke-miterlimit:10;}
	.st35{fill:#E92175;stroke:#CF2169;stroke-width:0.8556;stroke-linecap:round;stroke-miterlimit:10;}
	.st36{fill:none;stroke:#CF2169;stroke-width:0.8556;stroke-linecap:round;stroke-miterlimit:10;}
	.st37{opacity:0.6;}
	.st38{fill:none;stroke:#FFFFFF;stroke-width:1.2164;stroke-miterlimit:10;}
	.st39{fill:none;stroke:#FFFFFF;stroke-width:1.2164;stroke-linecap:round;stroke-miterlimit:10;}
	.st40{fill:#CF2169;}
	.st41{fill:none;stroke:#FFFFFF;stroke-width:0.6883;stroke-linecap:round;stroke-miterlimit:10;}
	.st42{fill:none;stroke:#FFFFFF;stroke-width:1.1771;stroke-linecap:round;stroke-miterlimit:10;}
	.st43{fill:none;stroke:#5A5A5A;stroke-width:1.3172;stroke-linecap:round;stroke-miterlimit:10;}
	.st44{fill:none;stroke:#FFFFFF;stroke-width:0.6586;stroke-linecap:round;stroke-miterlimit:10;}
	.st45{fill:none;stroke:#66C3FF;stroke-width:0.9929;stroke-linecap:round;stroke-linejoin:round;}
	.st46{fill:none;stroke:#66C3FF;stroke-width:0.9929;stroke-linecap:round;stroke-linejoin:round;stroke-dasharray:4.7143,4.7143;}
	.st47{fill:none;stroke:#66C3FF;stroke-width:0.9929;stroke-linecap:round;stroke-linejoin:round;stroke-dasharray:4.9786,4.9786;}
	.st48{fill:none;stroke:#66C3FF;stroke-width:0.9929;stroke-linecap:round;stroke-linejoin:round;stroke-dasharray:4.8595,4.8595;}
	.st49{fill:#6666FF;stroke:#4A54CB;stroke-width:0.5704;stroke-linecap:round;stroke-miterlimit:10;}
	.st50{fill:#B66E4D;}
	.st51{fill:#6C3220;}
	.st52{fill:#9D5F44;}
	.st53{fill:none;stroke:#924D2F;stroke-width:2.0021;stroke-linecap:round;stroke-miterlimit:10;}
	.st54{fill:none;stroke:#FFFFFF;stroke-width:1.7775;stroke-linecap:round;stroke-miterlimit:10;}
	.st55{fill:none;stroke:#5A5A5A;stroke-width:2.0021;stroke-linecap:round;stroke-miterlimit:10;}
	.st56{fill:none;stroke:#FFFFFF;stroke-width:2.1622;stroke-miterlimit:10;}
	.st57{fill:none;stroke:#FFFFFF;stroke-width:2.1622;stroke-linecap:round;stroke-miterlimit:10;}
	.st58{opacity:0.26;fill:#F8B0A7;}
	.st59{fill:#33CC99;stroke:#3EA88C;stroke-width:1.0139;stroke-linecap:round;stroke-miterlimit:10;}
	.st60{fill:none;stroke:#4A54CB;stroke-width:0.7132;stroke-linecap:round;stroke-miterlimit:10;}
	.st61{fill:none;stroke:#FFFFFF;stroke-width:1.2743;stroke-linecap:round;stroke-miterlimit:10;}
	.st62{fill:none;stroke:#CF2169;stroke-width:0.7132;stroke-linecap:round;stroke-miterlimit:10;}
	.st63{fill:#E92175;stroke:#CF2169;stroke-width:1.0143;stroke-linecap:round;stroke-miterlimit:10;}
	.st64{fill:none;stroke:#FFFFFF;stroke-width:0.9329;stroke-linecap:round;stroke-miterlimit:10;}
	.st65{fill:none;stroke:#D78181;stroke-width:1.9046;stroke-linecap:round;stroke-miterlimit:10;}
	.st66{fill:none;stroke:#D78181;stroke-width:1.8882;stroke-linecap:round;stroke-miterlimit:10;}
	.st67{fill:none;stroke:#FFFFFF;stroke-width:1.9965;stroke-linecap:round;stroke-miterlimit:10;}
	.st68{fill:none;stroke:#3EA88C;stroke-width:1.9965;stroke-linecap:round;stroke-miterlimit:10;}
	.st69{fill:none;stroke:#FFFFFF;stroke-width:1.9965;stroke-miterlimit:10;}
	.st70{fill:none;stroke:#E92175;stroke-width:1.3352;stroke-linecap:round;stroke-miterlimit:10;}
	.st71{fill:none;stroke:#D78181;stroke-width:1.9339;stroke-linecap:round;stroke-miterlimit:10;}
	.st72{fill:none;stroke:#E92175;stroke-width:1.9339;stroke-linecap:round;stroke-miterlimit:10;}
	.st73{fill:none;stroke:#3EA88C;stroke-width:1.3446;stroke-linecap:round;stroke-miterlimit:10;}
	.st74{fill:none;stroke:#FFFFFF;stroke-width:2.0886;stroke-miterlimit:10;}
	.st75{fill:none;stroke:#FFFFFF;stroke-width:2.0886;stroke-linecap:round;stroke-miterlimit:10;}
	.st76{fill:none;stroke:#FFFFFF;stroke-width:1.1818;stroke-linecap:round;stroke-miterlimit:10;}
	.st77{fill:none;stroke:#FFFFFF;stroke-width:2.021;stroke-linecap:round;stroke-miterlimit:10;}
	.st78{fill:#6666FF;stroke:#4A54CB;stroke-width:0.9793;stroke-linecap:round;stroke-miterlimit:10;}
</style>
<g id="BG">
	<g>
		<path class="st0" d="M12.2,193c-0.4,13.7-2.4,27.4-1.7,41.1c0.5,10.6,2.7,21,5.4,31.2c9.5,36,29.5,73.4,64.8,85.1
			c22.6,7.5,47.2,3,70.8-0.6c6.2-0.9,12.4-1.8,18.6-2.1c39-2,77.1,17.6,115.8,13c28-3.4,53.4-19.2,81.4-23c16.3-2.2,33.2-0.3,49-4.9
			c13.5-3.9,25.1-29.7,26.5-47.2c0.6-7.8,1.9-15.4,4-23l3.3-12c2.1-7.6,4.9-15,8.3-22.1c7.1-14.6,15.1-28.8,20.8-44
			c6.9-18.6,10.4-38.4,10.1-58.3c-0.4-26.7-8-53.7-23.7-75.4c-15.7-21.6-40-37.5-66.6-40.5c-19.2-2.2-38.5,2.1-57.5,5.1
			c-37.3,5.9-75.3,7-112.9,3.4c-11.5-1.1-23.2-2.7-34.4,0c-7,1.7-13.5,5-20.2,7.6c-24.4,9.4-51.2,9.8-77.1,13.6
			C70.9,43.7,43.7,52,27.5,72.6C14.6,88.8,10.6,110.3,10.2,131C9.9,151.7,12.9,172.3,12.2,193z"/>
	</g>
</g>
<g id="Background" class="st1">
</g>
<g id="Design">
	<path class="st17" d="M282.6,192c0,0-8.9-23-4.5-25.1c3.4-1.6,5.8,8.7,6.7,13.4l2.6-7.4c0,0,5.7-14.3,9.1-13.8
		c3,0.5,1.5,5.5-0.7,11.4c1.9-4.3,4.9-9.9,7.3-8.7c3.6,1.9-2.7,12.5-3.6,14.6c-0.8,2.2-0.8,2.2-0.8,2.2s7.1-15.6,10.1-14.4
		c3.9,1.6-1.2,8-4.2,16c0,0,5.8-12.5,7.3-11.7c2.7,1.4,6.4,1.3-12.2,29.7l-2-1.5l-0.1,1.2L282.6,192z"/>
	<path class="st18" d="M201.5,284.6c1-27.2-3.7-64.1-3.7-64.1l13.9-15.7c0,0-9.6-19-60.8-21.4l0-0.2c-0.6,0-1.1,0-1.7,0.1
		c-0.5,0-1,0-1.4-0.1v0c0,0-0.1,0-0.1,0c0,0-0.1,0-0.1,0v0c0,0-0.1,0-0.1,0c0,0-0.1,0-0.1,0v0c0,0-0.1,0-0.1,0c0,0-0.1,0-0.1,0v0
		c-0.5,0-1,0-1.4,0.1c-0.6,0-1.1-0.1-1.7-0.1l0,0.2c-51.2,2.4-60.8,21.4-60.8,21.4l13.9,15.7c0,0-4.7,36.9-3.7,64.1
		c1,25.6,2,54.6,2.6,69.1c18.1,2.2,37.1-1.2,55.4-4c6.2-0.9,12.4-1.8,18.6-2.1c9.7-0.5,19.4,0.3,29,1.8
		C199.7,334,200.6,307.9,201.5,284.6z"/>
	<path class="st14" d="M174.3,186.1c-6.6-1.3-14.3-2.2-23.4-2.6l0-0.2c-0.6,0-1.1,0-1.7,0.1c-0.5,0-1,0-1.4-0.1v0c0,0-0.1,0-0.1,0
		c0,0-0.1,0-0.1,0v0c0,0-0.1,0-0.1,0c0,0-0.1,0-0.1,0v0c0,0-0.1,0-0.1,0c0,0-0.1,0-0.1,0v0c-0.5,0-1,0-1.4,0.1
		c-0.6,0-1.1-0.1-1.7-0.1l0,0.2c-9.3,0.4-17.1,1.4-23.9,2.7c3,11.7,14,11.9,27.1,11.9C160.4,198.1,171.4,197.9,174.3,186.1z"/>
	<path class="st17" d="M125.5,312.6c0,0,21.4-8.9,23.5-4.8c1.6,3.2-8.1,5.7-12.4,6.6l7,2.3c0,0,13.6,5,13.1,8.2
		c-0.4,2.8-5.2,1.6-10.7-0.4c4,1.7,9.4,4.4,8.3,6.6c-1.7,3.4-11.8-2.3-13.8-3c-2-0.7-2-0.7-2-0.7s14.8,6.3,13.8,9.1
		c-1.4,3.7-7.6-0.9-15.1-3.6c0,0,11.8,5.2,11.2,6.6c-1.2,2.6-1,6-28.2-10.7l1.4-1.9l-1.1,0L125.5,312.6z"/>
	<path class="st18" d="M82.7,204.9c0,0-61.7,101.2,39.2,125.7l5.7-22.9c0,0-67.4-9.9-30.1-77.3l3.9-17.3l6.1-23.8"/>
	<path class="st63" d="M94.7,320.5c0,0,14.4,11.3,26.5,10l5.7-22.9c0,0-12.2-0.1-33.4-19"/>
	<g>
		<path class="st64" d="M435.2,120.9c0,0,9-7.7,17-8.4"/>
		<line class="st64" x1="454.7" y1="112.3" x2="455.6" y2="112.2"/>
	</g>
	<path class="st18" d="M211.8,204.9c0,0,26.5,45.8,31.1,47.2c4.6,1.4,34.4-65.6,34.4-65.6l26.4,10.5c0,0-38.6,85-53.4,91.6
		c-14.9,6.6-55.2-53.7-55.2-53.7l-3.2-22.5L211.8,204.9z"/>
	<rect x="134.5" y="159" class="st14" width="27.4" height="27.4"/>
	<g>
		<path class="st17" d="M106.7,133c0,0-13.2-11.1-7.3-20.4c3.5-5.5,5.3,0.1,5.3,0.1L106.7,133z"/>
		<path class="st17" d="M191.4,133c0,0,13.2-11.1,7.3-20.4c-3.5-5.5-5.3,0.1-5.3,0.1L191.4,133z"/>
	</g>
	<g>
		<path class="st17" d="M195.1,110.8c0,29.8-20.6,61-46,61s-46-31.2-46-61s20.6-53.9,46-53.9S195.1,81,195.1,110.8z"/>
		<path class="st65" d="M151.3,102.7c0,0-0.4,15-2.2,18.7c-2.1,4.4-13.4,14.6,0.5,14.6"/>
	</g>
	<g>
		<path class="st66" d="M158.3,97.4c0,0,10.3-9.7,20.5,1.6"/>
		<path class="st66" d="M139.8,97.4c0,0-10.3-9.7-20.5,1.6"/>
	</g>
	<line class="st67" x1="143.2" y1="110.7" x2="154.9" y2="110.7"/>
	<g>
		<g>
			<line class="st68" x1="103.7" y1="110.5" x2="117.7" y2="110.5"/>
			<line class="st67" x1="103.7" y1="110.5" x2="117.7" y2="110.5"/>
		</g>
		<g>
			<line class="st68" x1="180.4" y1="110.5" x2="194.5" y2="110.5"/>
			<line class="st67" x1="180.4" y1="110.5" x2="194.5" y2="110.5"/>
		</g>
	</g>
	<g>
		<path class="st69" d="M143,115.8c0,7.8-5.6,12.8-12.6,12.8c-6.9,0-12.6-5-12.6-12.8s5.6-13.1,12.6-13.1
			C137.4,102.7,143,108,143,115.8z"/>
		<path class="st69" d="M180.2,115.8c0,7.8-5.6,12.8-12.6,12.8c-6.9,0-12.6-5-12.6-12.8s5.6-13.1,12.6-13.1
			C174.6,102.7,180.2,108,180.2,115.8z"/>
	</g>
	<path class="st33" d="M149.1,139.9c-14,0-14.6,10-14.6,10s1,3,2.7,0.2c2.6-4.3,8.4-4.2,11.2-4.7c0.4-0.1,0.9-0.1,1.3,0
		c2.9,0.5,8.6,0.4,11.2,4.7c1.7,2.8,2.7-0.2,2.7-0.2S163.1,139.9,149.1,139.9z"/>
	<path class="st33" d="M149.1,156.6h-4.6c0,0,0.4,5,4.6,5c4.2,0,4.6-5,4.6-5H149.1z"/>
	<path class="st33" d="M149.1,165.8c-31.5-0.2-42.8-35.5-42.8-35.5c2.2,40.6,38,42.5,42.5,42.7h0.5c4.5-0.2,40.5-2.1,42.7-42.7
		C191.9,130.3,180.5,165.6,149.1,165.8z"/>
	<path class="st70" d="M154.9,149c0,1.6-2.6,4.6-5.9,4.6s-5.9-3-5.9-4.6"/>
	<g>
		<path class="st33" d="M180.5,65.7c-0.7-0.7-0.9-2-1.9-2c-0.4,0-0.7,0.2-1.1,0.1c-1.2-0.2-0.8-2.2-1.6-3.1
			c-1.1-1.5-3.6,0.4-5.1-0.7c-1.6-1.1-0.7-4.4-2.5-5c-1.3-0.4-2.6,1.1-3.8,0.6c-0.9-0.4-1.1-1.6-2-2.1c-1.2-0.7-2.8,0.5-4.1-0.1
			c-0.7-0.3-1-1.1-1.6-1.5c-0.8-0.7-1.9-0.8-3-0.9c-1.6-0.1-3.2-0.2-4.8-0.3v0c0,0-0.1,0-0.1,0c0,0-0.1,0-0.1,0v0
			c-1.6,0.1-3.2,0.2-4.8,0.3c-1.1,0.1-2.2,0.2-3,0.9c-0.6,0.5-0.9,1.2-1.6,1.5c-1.3,0.6-2.9-0.6-4.1,0.1c-0.8,0.5-1.1,1.7-2,2.1
			c-1.2,0.5-2.6-1-3.8-0.6c-1.8,0.6-0.9,3.9-2.5,5c-1.5,1-4-0.8-5.1,0.7c-0.8,1-0.4,3-1.6,3.1c-0.4,0-0.7-0.1-1.1-0.1
			c-0.9,0-1.2,1.3-1.9,2c-7.2,7.2-11.8,21.5-12.7,28.5h5.2c13.3-37.4,36.8-22.7,38.8-21.8h0.2c2-1,25.6-15.6,38.8,21.8h5.2
			C192.3,87.2,187.7,72.9,180.5,65.7z"/>
	</g>
	<g>
		<g>
			<circle class="st33" cx="106.1" cy="96.3" r="0.6"/>
			<circle class="st33" cx="108.2" cy="96.3" r="0.6"/>
			<circle class="st33" cx="110.3" cy="96.3" r="0.6"/>
			<circle class="st33" cx="105.6" cy="98.3" r="0.6"/>
			<circle class="st33" cx="107.7" cy="98.3" r="0.6"/>
			<circle class="st33" cx="105.3" cy="100.4" r="0.6"/>
			<circle class="st33" cx="107.4" cy="100.4" r="0.6"/>
			<circle class="st33" cx="105" cy="102.6" r="0.6"/>
		</g>
		<g>
			<circle class="st33" cx="192" cy="96.3" r="0.6"/>
			<circle class="st33" cx="189.9" cy="96.3" r="0.6"/>
			<circle class="st33" cx="187.8" cy="96.3" r="0.6"/>
			<circle class="st33" cx="192.6" cy="98.3" r="0.6"/>
			<circle class="st33" cx="190.5" cy="98.3" r="0.6"/>
			<circle class="st33" cx="192.8" cy="100.4" r="0.6"/>
			<circle class="st33" cx="190.7" cy="100.4" r="0.6"/>
			<circle class="st33" cx="193.1" cy="102.6" r="0.6"/>
		</g>
	</g>
	<g>
		<circle class="st21" cx="130.3" cy="115.7" r="3.4"/>
		<circle class="st21" cx="167.8" cy="115.7" r="3.4"/>
	</g>
	
		<rect x="271.8" y="139.5" transform="matrix(0.8997 0.4366 -0.4366 0.8997 99.503 -111.7609)" class="st13" width="42.1" height="42.1"/>
	<path class="st17" d="M280.6,186.5c0,0-6.9-17.5-2.6-19.6c3.4-1.6,5.8,8.7,6.7,13.4"/>
	
		<rect x="343.6" y="63.2" transform="matrix(0.9974 -7.233061e-02 7.233061e-02 0.9974 -5.043 26.4976)" class="st18" width="39.4" height="39.4"/>
	
		<rect x="354.1" y="150.1" transform="matrix(0.993 -0.118 0.118 0.993 -17.4349 45.3099)" class="st7" width="39.4" height="39.4"/>
	
		<rect x="372.8" y="92.8" transform="matrix(0.9908 0.1356 -0.1356 0.9908 18.8872 -52.1951)" class="st3" width="39.4" height="39.4"/>
	<path class="st40" d="M201.6,280.3c0-1.2,0-2.5,0-3.7c-4.1,15.9-14.2,48.3-34.1,71.3c0.9-0.1,1.7-0.1,2.6-0.2
		c9.7-0.5,19.4,0.3,29,1.8c0-0.1,0-0.2,0-0.4c0-0.6,0-1.3,0.1-2c0-0.4,0-0.9,0-1.3c0.2-6.1,0.5-13.5,0.8-21.5c0-0.3,0-0.5,0-0.8
		c0.2-5.1,0.4-10.5,0.6-15.9c0-0.5,0-1,0.1-1.6c0-1,0.1-2,0.1-3c0-0.4,0-0.7,0-1.1c0-0.4,0-0.7,0-1.1c0-0.3,0-0.5,0-0.8
		c0-0.6,0-1.2,0.1-1.8c0-0.4,0-0.7,0-1.1c0-0.3,0-0.5,0-0.8c0-0.4,0-0.8,0-1.3c0-1.2,0.1-2.4,0.1-3.7c0-1,0.1-2,0.1-3
		c0-0.3,0-0.6,0-0.9c0-0.4,0-0.7,0-1.1c0-0.6,0-1.2,0.1-1.8c0-1.2,0.1-2.4,0.1-3.6C201.6,280.8,201.6,280.5,201.6,280.3z"/>
	<path class="st67" d="M117.7,73.4c0,0,5-9.4,18-11.2"/>
	<line class="st67" x1="138.7" y1="61.7" x2="139.5" y2="61.7"/>
</g>
</svg>
